<svg width="88" height="88" viewBox="0 0 88 88" fill="none" xmlns="http://www.w3.org/2000/svg">
<path d="M81.7609 37.7609H50.2391V6.23906C50.2391 2.78437 47.4375 0 44 0C40.5625 0 37.7609 2.78437 37.7609 6.23906V37.7609H6.23906C2.78437 37.7609 0 40.5625 0 44C0 47.4375 2.78437 50.2391 6.23906 50.2391H37.7609V81.7609C37.7609 85.1984 40.5453 88 44 88C47.4375 88 50.2391 85.2156 50.2391 81.7609V50.2391H81.7609C85.1984 50.2391 88 47.4547 88 44C88 40.5625 85.2156 37.7609 81.7609 37.7609Z" fill="url(#paint0_linear_203_179)"/>
<defs>
<linearGradient id="paint0_linear_203_179" x1="0.23375" y1="0.23375" x2="86.5752" y2="86.5752" gradientUnits="userSpaceOnUse">
<stop stop-color="#F59839"/>
<stop offset="1" stop-color="#2C75FF"/>
</linearGradient>
</defs>
</svg>
