<svg xmlns="http://www.w3.org/2000/svg" version="1.1" xmlns:xlink="http://www.w3.org/1999/xlink" width="40" height="25" x="0" y="0" viewBox="0 0 320.941 320.941" style="enable-background:new 0 0 512 512" xml:space="preserve" class=""><g><path d="M290.853 40.118H109.804a30 30 0 0 0-23.301 11.038L2.262 154.124a10.032 10.032 0 0 0 0 12.693l84.251 102.978c5.739 7.013 14.231 11.028 23.291 11.028h181.048c16.592 0 30.088-13.497 30.088-30.088V70.206c.001-16.592-13.496-30.088-30.087-30.088zm10.029 210.617c0 5.534-4.496 10.029-10.029 10.029H109.804a10.006 10.006 0 0 1-7.767-3.673l-79.05-96.621 79.04-96.611a10.017 10.017 0 0 1 7.777-3.683h181.048c5.534 0 10.029 4.496 10.029 10.029l.001 180.53z" fill="#000000" opacity="1" data-original="#000000"></path><path d="m223.585 103.232-43.056 43.056-43.056-43.056-14.182 14.182 43.056 43.056-43.056 43.056 14.182 14.182 43.056-43.056 43.056 43.056 14.182-14.182-43.056-43.056 43.056-43.056z" fill="#000000" opacity="1" data-original="#000000"></path></g></svg>