<svg width="88" height="88" viewBox="0 0 88 88" fill="none" xmlns="http://www.w3.org/2000/svg">
<mask id="path-1-outside-1_396_230" maskUnits="userSpaceOnUse" x="3.46875" y="5.46875" width="81" height="81" fill="black">
<rect fill="white" x="3.46875" y="5.46875" width="81" height="81"/>
<path d="M66.7287 41.952C66.8301 42.0464 66.9113 42.1603 66.9677 42.2868C67.0241 42.4133 67.0544 42.5498 67.0568 42.6883C67.0593 42.8267 67.0338 42.9643 66.9819 43.0927C66.9301 43.2211 66.8529 43.3378 66.7549 43.4357C66.657 43.5336 66.5404 43.6108 66.4119 43.6627C66.2835 43.7145 66.146 43.74 66.0075 43.7376C65.8691 43.7351 65.7325 43.7048 65.606 43.6484C65.4795 43.5921 65.3657 43.5108 65.2713 43.4095L58.7812 36.9195V56.4307C58.7812 56.7043 58.6726 56.9666 58.4792 57.16C58.2858 57.3533 58.0235 57.462 57.75 57.462C57.4765 57.462 57.2142 57.3533 57.0208 57.16C56.8274 56.9666 56.7188 56.7043 56.7188 56.4307V36.9195L50.2287 43.4095C50.1343 43.5108 50.0205 43.5921 49.894 43.6484C49.7675 43.7048 49.6309 43.7351 49.4925 43.7376C49.354 43.74 49.2165 43.7145 49.0881 43.6627C48.9596 43.6108 48.843 43.5336 48.7451 43.4357C48.6471 43.3378 48.5699 43.2211 48.5181 43.0927C48.4662 42.9643 48.4407 42.8267 48.4432 42.6883C48.4456 42.5498 48.4759 42.4133 48.5323 42.2868C48.5887 42.1603 48.6699 42.0464 48.7713 41.952L56.0491 34.6741C56.5009 34.2242 57.1125 33.9717 57.75 33.9717C58.3875 33.9717 58.9991 34.2242 59.4509 34.6741L66.7287 41.952ZM69.7812 68.7851V80.375C69.7794 81.742 69.2356 83.0524 68.269 84.019C67.3024 84.9856 65.992 85.5294 64.625 85.5312H17.875C16.508 85.5294 15.1976 84.9856 14.231 84.019C13.2644 83.0524 12.7206 81.742 12.7188 80.375V80.0312H9.625C8.25804 80.0294 6.94758 79.4856 5.98099 78.519C5.0144 77.5524 4.47057 76.242 4.46875 74.875V21.25C4.46875 20.975 4.57875 20.7138 4.77125 20.5213L18.5213 6.77125C18.7145 6.5778 18.9766 6.46899 19.25 6.46875H56.375C57.742 6.47057 59.0524 7.0144 60.019 7.98099C60.9856 8.94758 61.5294 10.258 61.5312 11.625V11.9688H64.625C65.992 11.9706 67.3024 12.5144 68.269 13.481C69.2356 14.4476 69.7794 15.758 69.7812 17.125V23.2163C77.9488 27.5461 83.5312 36.1289 83.5312 46C83.5312 55.8711 77.9488 64.4552 69.7812 68.7851ZM61.5312 14.0312V20.5281C63.69 20.8471 65.769 21.4068 67.7188 22.2276V17.125C67.7188 15.42 66.33 14.0312 64.625 14.0312H61.5312ZM7.98875 20.2188H16.5C17.4487 20.2188 18.2188 19.4487 18.2188 18.5V9.98875L7.98875 20.2188ZM9.625 77.9688H56.375C58.08 77.9688 59.4688 76.58 59.4688 74.875V71.6946C58.8981 71.7318 58.3302 71.7812 57.75 71.7812C51.007 71.7812 44.88 69.1591 40.282 64.9062H15.125C14.8515 64.9062 14.5892 64.7976 14.3958 64.6042C14.2024 64.4108 14.0938 64.1485 14.0938 63.875C14.0938 63.6015 14.2024 63.3392 14.3958 63.1458C14.5892 62.9524 14.8515 62.8438 15.125 62.8438H38.2759C36.6629 60.9814 35.3247 58.8978 34.3021 56.6562H15.125C14.8515 56.6562 14.5892 56.5476 14.3958 56.3542C14.2024 56.1608 14.0938 55.8985 14.0938 55.625C14.0938 55.3515 14.2024 55.0892 14.3958 54.8958C14.5892 54.7024 14.8515 54.5938 15.125 54.5938H33.473C32.7571 52.5967 32.2929 50.5182 32.0911 48.4062H15.125C14.8515 48.4062 14.5892 48.2976 14.3958 48.1042C14.2024 47.9108 14.0938 47.6485 14.0938 47.375C14.0938 47.1015 14.2024 46.8392 14.3958 46.6458C14.5892 46.4524 14.8515 46.3438 15.125 46.3438H31.9866C31.9853 46.2283 31.9688 46.1155 31.9688 46C31.9688 43.987 32.2245 42.0373 32.6617 40.1562H15.125C14.8515 40.1562 14.5892 40.0476 14.3958 39.8542C14.2024 39.6608 14.0938 39.3985 14.0938 39.125C14.0938 38.8515 14.2024 38.5892 14.3958 38.3958C14.5892 38.2024 14.8515 38.0938 15.125 38.0938H33.22C33.9282 35.9077 34.9267 33.8266 36.1886 31.9062H15.125C14.8515 31.9062 14.5892 31.7976 14.3958 31.6042C14.2024 31.4108 14.0938 31.1485 14.0938 30.875C14.0938 30.6015 14.2024 30.3392 14.3958 30.1458C14.5892 29.9524 14.8515 29.8438 15.125 29.8438H37.6887C42.4187 23.9821 49.6485 20.2188 57.75 20.2188C58.3302 20.2188 58.8981 20.2682 59.4688 20.3054V11.625C59.4688 9.92 58.08 8.53125 56.375 8.53125H20.2812V18.5C20.2802 19.5025 19.8814 20.4637 19.1725 21.1725C18.4637 21.8814 17.5025 22.2802 16.5 22.2812H6.53125V74.875C6.53125 76.58 7.92 77.9688 9.625 77.9688ZM67.7188 69.7738C65.7357 70.5972 63.6568 71.1677 61.5312 71.4719V74.875C61.5294 76.242 60.9856 77.5524 60.019 78.519C59.0524 79.4856 57.742 80.0294 56.375 80.0312H14.7812V80.375C14.7812 82.08 16.17 83.4688 17.875 83.4688H64.625C66.33 83.4688 67.7188 82.08 67.7188 80.375V69.7738ZM81.4688 46C81.4688 32.921 70.829 22.2812 57.75 22.2812C44.671 22.2812 34.0312 32.921 34.0312 46C34.0312 59.079 44.671 69.7188 57.75 69.7188C70.829 69.7188 81.4688 59.079 81.4688 46Z"/>
</mask>
<path d="M66.7287 41.952C66.8301 42.0464 66.9113 42.1603 66.9677 42.2868C67.0241 42.4133 67.0544 42.5498 67.0568 42.6883C67.0593 42.8267 67.0338 42.9643 66.9819 43.0927C66.9301 43.2211 66.8529 43.3378 66.7549 43.4357C66.657 43.5336 66.5404 43.6108 66.4119 43.6627C66.2835 43.7145 66.146 43.74 66.0075 43.7376C65.8691 43.7351 65.7325 43.7048 65.606 43.6484C65.4795 43.5921 65.3657 43.5108 65.2713 43.4095L58.7812 36.9195V56.4307C58.7812 56.7043 58.6726 56.9666 58.4792 57.16C58.2858 57.3533 58.0235 57.462 57.75 57.462C57.4765 57.462 57.2142 57.3533 57.0208 57.16C56.8274 56.9666 56.7188 56.7043 56.7188 56.4307V36.9195L50.2287 43.4095C50.1343 43.5108 50.0205 43.5921 49.894 43.6484C49.7675 43.7048 49.6309 43.7351 49.4925 43.7376C49.354 43.74 49.2165 43.7145 49.0881 43.6627C48.9596 43.6108 48.843 43.5336 48.7451 43.4357C48.6471 43.3378 48.5699 43.2211 48.5181 43.0927C48.4662 42.9643 48.4407 42.8267 48.4432 42.6883C48.4456 42.5498 48.4759 42.4133 48.5323 42.2868C48.5887 42.1603 48.6699 42.0464 48.7713 41.952L56.0491 34.6741C56.5009 34.2242 57.1125 33.9717 57.75 33.9717C58.3875 33.9717 58.9991 34.2242 59.4509 34.6741L66.7287 41.952ZM69.7812 68.7851V80.375C69.7794 81.742 69.2356 83.0524 68.269 84.019C67.3024 84.9856 65.992 85.5294 64.625 85.5312H17.875C16.508 85.5294 15.1976 84.9856 14.231 84.019C13.2644 83.0524 12.7206 81.742 12.7188 80.375V80.0312H9.625C8.25804 80.0294 6.94758 79.4856 5.98099 78.519C5.0144 77.5524 4.47057 76.242 4.46875 74.875V21.25C4.46875 20.975 4.57875 20.7138 4.77125 20.5213L18.5213 6.77125C18.7145 6.5778 18.9766 6.46899 19.25 6.46875H56.375C57.742 6.47057 59.0524 7.0144 60.019 7.98099C60.9856 8.94758 61.5294 10.258 61.5312 11.625V11.9688H64.625C65.992 11.9706 67.3024 12.5144 68.269 13.481C69.2356 14.4476 69.7794 15.758 69.7812 17.125V23.2163C77.9488 27.5461 83.5312 36.1289 83.5312 46C83.5312 55.8711 77.9488 64.4552 69.7812 68.7851ZM61.5312 14.0312V20.5281C63.69 20.8471 65.769 21.4068 67.7188 22.2276V17.125C67.7188 15.42 66.33 14.0312 64.625 14.0312H61.5312ZM7.98875 20.2188H16.5C17.4487 20.2188 18.2188 19.4487 18.2188 18.5V9.98875L7.98875 20.2188ZM9.625 77.9688H56.375C58.08 77.9688 59.4688 76.58 59.4688 74.875V71.6946C58.8981 71.7318 58.3302 71.7812 57.75 71.7812C51.007 71.7812 44.88 69.1591 40.282 64.9062H15.125C14.8515 64.9062 14.5892 64.7976 14.3958 64.6042C14.2024 64.4108 14.0938 64.1485 14.0938 63.875C14.0938 63.6015 14.2024 63.3392 14.3958 63.1458C14.5892 62.9524 14.8515 62.8438 15.125 62.8438H38.2759C36.6629 60.9814 35.3247 58.8978 34.3021 56.6562H15.125C14.8515 56.6562 14.5892 56.5476 14.3958 56.3542C14.2024 56.1608 14.0938 55.8985 14.0938 55.625C14.0938 55.3515 14.2024 55.0892 14.3958 54.8958C14.5892 54.7024 14.8515 54.5938 15.125 54.5938H33.473C32.7571 52.5967 32.2929 50.5182 32.0911 48.4062H15.125C14.8515 48.4062 14.5892 48.2976 14.3958 48.1042C14.2024 47.9108 14.0938 47.6485 14.0938 47.375C14.0938 47.1015 14.2024 46.8392 14.3958 46.6458C14.5892 46.4524 14.8515 46.3438 15.125 46.3438H31.9866C31.9853 46.2283 31.9688 46.1155 31.9688 46C31.9688 43.987 32.2245 42.0373 32.6617 40.1562H15.125C14.8515 40.1562 14.5892 40.0476 14.3958 39.8542C14.2024 39.6608 14.0938 39.3985 14.0938 39.125C14.0938 38.8515 14.2024 38.5892 14.3958 38.3958C14.5892 38.2024 14.8515 38.0938 15.125 38.0938H33.22C33.9282 35.9077 34.9267 33.8266 36.1886 31.9062H15.125C14.8515 31.9062 14.5892 31.7976 14.3958 31.6042C14.2024 31.4108 14.0938 31.1485 14.0938 30.875C14.0938 30.6015 14.2024 30.3392 14.3958 30.1458C14.5892 29.9524 14.8515 29.8438 15.125 29.8438H37.6887C42.4187 23.9821 49.6485 20.2188 57.75 20.2188C58.3302 20.2188 58.8981 20.2682 59.4688 20.3054V11.625C59.4688 9.92 58.08 8.53125 56.375 8.53125H20.2812V18.5C20.2802 19.5025 19.8814 20.4637 19.1725 21.1725C18.4637 21.8814 17.5025 22.2802 16.5 22.2812H6.53125V74.875C6.53125 76.58 7.92 77.9688 9.625 77.9688ZM67.7188 69.7738C65.7357 70.5972 63.6568 71.1677 61.5312 71.4719V74.875C61.5294 76.242 60.9856 77.5524 60.019 78.519C59.0524 79.4856 57.742 80.0294 56.375 80.0312H14.7812V80.375C14.7812 82.08 16.17 83.4688 17.875 83.4688H64.625C66.33 83.4688 67.7188 82.08 67.7188 80.375V69.7738ZM81.4688 46C81.4688 32.921 70.829 22.2812 57.75 22.2812C44.671 22.2812 34.0312 32.921 34.0312 46C34.0312 59.079 44.671 69.7188 57.75 69.7188C70.829 69.7188 81.4688 59.079 81.4688 46Z" fill="url(#paint0_linear_396_230)"/>
<path d="M66.7287 41.952C66.8301 42.0464 66.9113 42.1603 66.9677 42.2868C67.0241 42.4133 67.0544 42.5498 67.0568 42.6883C67.0593 42.8267 67.0338 42.9643 66.9819 43.0927C66.9301 43.2211 66.8529 43.3378 66.7549 43.4357C66.657 43.5336 66.5404 43.6108 66.4119 43.6627C66.2835 43.7145 66.146 43.74 66.0075 43.7376C65.8691 43.7351 65.7325 43.7048 65.606 43.6484C65.4795 43.5921 65.3657 43.5108 65.2713 43.4095L58.7812 36.9195V56.4307C58.7812 56.7043 58.6726 56.9666 58.4792 57.16C58.2858 57.3533 58.0235 57.462 57.75 57.462C57.4765 57.462 57.2142 57.3533 57.0208 57.16C56.8274 56.9666 56.7188 56.7043 56.7188 56.4307V36.9195L50.2287 43.4095C50.1343 43.5108 50.0205 43.5921 49.894 43.6484C49.7675 43.7048 49.6309 43.7351 49.4925 43.7376C49.354 43.74 49.2165 43.7145 49.0881 43.6627C48.9596 43.6108 48.843 43.5336 48.7451 43.4357C48.6471 43.3378 48.5699 43.2211 48.5181 43.0927C48.4662 42.9643 48.4407 42.8267 48.4432 42.6883C48.4456 42.5498 48.4759 42.4133 48.5323 42.2868C48.5887 42.1603 48.6699 42.0464 48.7713 41.952L56.0491 34.6741C56.5009 34.2242 57.1125 33.9717 57.75 33.9717C58.3875 33.9717 58.9991 34.2242 59.4509 34.6741L66.7287 41.952ZM69.7812 68.7851V80.375C69.7794 81.742 69.2356 83.0524 68.269 84.019C67.3024 84.9856 65.992 85.5294 64.625 85.5312H17.875C16.508 85.5294 15.1976 84.9856 14.231 84.019C13.2644 83.0524 12.7206 81.742 12.7188 80.375V80.0312H9.625C8.25804 80.0294 6.94758 79.4856 5.98099 78.519C5.0144 77.5524 4.47057 76.242 4.46875 74.875V21.25C4.46875 20.975 4.57875 20.7138 4.77125 20.5213L18.5213 6.77125C18.7145 6.5778 18.9766 6.46899 19.25 6.46875H56.375C57.742 6.47057 59.0524 7.0144 60.019 7.98099C60.9856 8.94758 61.5294 10.258 61.5312 11.625V11.9688H64.625C65.992 11.9706 67.3024 12.5144 68.269 13.481C69.2356 14.4476 69.7794 15.758 69.7812 17.125V23.2163C77.9488 27.5461 83.5312 36.1289 83.5312 46C83.5312 55.8711 77.9488 64.4552 69.7812 68.7851ZM61.5312 14.0312V20.5281C63.69 20.8471 65.769 21.4068 67.7188 22.2276V17.125C67.7188 15.42 66.33 14.0312 64.625 14.0312H61.5312ZM7.98875 20.2188H16.5C17.4487 20.2188 18.2188 19.4487 18.2188 18.5V9.98875L7.98875 20.2188ZM9.625 77.9688H56.375C58.08 77.9688 59.4688 76.58 59.4688 74.875V71.6946C58.8981 71.7318 58.3302 71.7812 57.75 71.7812C51.007 71.7812 44.88 69.1591 40.282 64.9062H15.125C14.8515 64.9062 14.5892 64.7976 14.3958 64.6042C14.2024 64.4108 14.0938 64.1485 14.0938 63.875C14.0938 63.6015 14.2024 63.3392 14.3958 63.1458C14.5892 62.9524 14.8515 62.8438 15.125 62.8438H38.2759C36.6629 60.9814 35.3247 58.8978 34.3021 56.6562H15.125C14.8515 56.6562 14.5892 56.5476 14.3958 56.3542C14.2024 56.1608 14.0938 55.8985 14.0938 55.625C14.0938 55.3515 14.2024 55.0892 14.3958 54.8958C14.5892 54.7024 14.8515 54.5938 15.125 54.5938H33.473C32.7571 52.5967 32.2929 50.5182 32.0911 48.4062H15.125C14.8515 48.4062 14.5892 48.2976 14.3958 48.1042C14.2024 47.9108 14.0938 47.6485 14.0938 47.375C14.0938 47.1015 14.2024 46.8392 14.3958 46.6458C14.5892 46.4524 14.8515 46.3438 15.125 46.3438H31.9866C31.9853 46.2283 31.9688 46.1155 31.9688 46C31.9688 43.987 32.2245 42.0373 32.6617 40.1562H15.125C14.8515 40.1562 14.5892 40.0476 14.3958 39.8542C14.2024 39.6608 14.0938 39.3985 14.0938 39.125C14.0938 38.8515 14.2024 38.5892 14.3958 38.3958C14.5892 38.2024 14.8515 38.0938 15.125 38.0938H33.22C33.9282 35.9077 34.9267 33.8266 36.1886 31.9062H15.125C14.8515 31.9062 14.5892 31.7976 14.3958 31.6042C14.2024 31.4108 14.0938 31.1485 14.0938 30.875C14.0938 30.6015 14.2024 30.3392 14.3958 30.1458C14.5892 29.9524 14.8515 29.8438 15.125 29.8438H37.6887C42.4187 23.9821 49.6485 20.2188 57.75 20.2188C58.3302 20.2188 58.8981 20.2682 59.4688 20.3054V11.625C59.4688 9.92 58.08 8.53125 56.375 8.53125H20.2812V18.5C20.2802 19.5025 19.8814 20.4637 19.1725 21.1725C18.4637 21.8814 17.5025 22.2802 16.5 22.2812H6.53125V74.875C6.53125 76.58 7.92 77.9688 9.625 77.9688ZM67.7188 69.7738C65.7357 70.5972 63.6568 71.1677 61.5312 71.4719V74.875C61.5294 76.242 60.9856 77.5524 60.019 78.519C59.0524 79.4856 57.742 80.0294 56.375 80.0312H14.7812V80.375C14.7812 82.08 16.17 83.4688 17.875 83.4688H64.625C66.33 83.4688 67.7188 82.08 67.7188 80.375V69.7738ZM81.4688 46C81.4688 32.921 70.829 22.2812 57.75 22.2812C44.671 22.2812 34.0312 32.921 34.0312 46C34.0312 59.079 44.671 69.7188 57.75 69.7188C70.829 69.7188 81.4688 59.079 81.4688 46Z" stroke="url(#paint1_linear_396_230)" mask="url(#path-1-outside-1_396_230)"/>
<defs>
<linearGradient id="paint0_linear_396_230" x1="4.67876" y1="6.67876" x2="82.2511" y2="84.2511" gradientUnits="userSpaceOnUse">
<stop stop-color="#F59839"/>
<stop offset="1" stop-color="#2C75FF"/>
</linearGradient>
<linearGradient id="paint1_linear_396_230" x1="4.67876" y1="6.67876" x2="82.2511" y2="84.2511" gradientUnits="userSpaceOnUse">
<stop stop-color="#F59839"/>
<stop offset="1" stop-color="#2C75FF"/>
</linearGradient>
</defs>
</svg>
