<svg width="88" height="88" viewBox="0 0 88 88" fill="none" xmlns="http://www.w3.org/2000/svg">
<path d="M71.569 24.5741C70.628 18.9825 67.8593 13.8795 63.6249 10.007C58.92 5.70019 52.8036 3.32964 46.4339 3.32964C41.5118 3.32964 36.7164 4.74111 32.6087 7.4012C29.1886 9.60889 26.3475 12.5947 24.3389 16.1053C23.4703 15.9424 22.5655 15.8519 21.6607 15.8519C13.97 15.8519 7.70882 22.1131 7.70882 29.8038C7.70882 30.7991 7.8174 31.7582 7.99835 32.6992C3.022 36.3183 0 42.1452 0 48.352C0 53.3646 1.86387 58.2324 5.26588 62.0868C8.75838 66.0317 13.3728 68.366 18.2949 68.6375H34.0021C35.3592 68.6375 36.445 67.5517 36.445 66.1945C36.445 64.8373 35.3592 63.7516 34.0021 63.7516H18.512C11.1108 63.2992 4.88587 56.2599 4.88587 48.334C4.88587 43.2128 7.63644 38.4355 12.0699 35.8478C13.1014 35.2507 13.5357 34.0021 13.1376 32.8801C12.7757 31.9029 12.5947 30.8715 12.5947 29.7676C12.5947 24.7732 16.6663 20.7016 21.6607 20.7016C22.7284 20.7016 23.7779 20.8826 24.7551 21.2445C25.9494 21.6788 27.2704 21.1359 27.8133 19.9959C31.1972 12.8118 38.5079 8.17932 46.452 8.17932C57.1285 8.17932 65.9412 16.1777 66.9545 26.7818C67.0631 27.8857 67.8955 28.7724 68.9813 28.9533C77.0339 30.3286 83.1141 37.766 83.1141 46.2529C83.1141 55.2466 76.0387 63.064 67.3165 63.7335H53.9798C52.6227 63.7335 51.5369 64.8192 51.5369 66.1764C51.5369 67.5336 52.6227 68.6194 53.9798 68.6194H67.5879C73.1071 68.2213 78.2644 65.6878 82.1008 61.4534C85.919 57.2552 88 51.8626 88 46.2529C87.9819 36.1012 81.0512 27.0714 71.569 24.5741Z" fill="url(#paint0_linear_203_197)"/>
<path d="M58.6664 50.6683C59.6255 49.7092 59.6255 48.1711 58.6664 47.212L45.7279 34.2735C45.2755 33.8211 44.6421 33.5497 44.0088 33.5497C43.3754 33.5497 42.7421 33.803 42.2897 34.2735L29.3511 47.212C28.3921 48.1711 28.3921 49.7092 29.3511 50.6683C29.8216 51.1388 30.455 51.3921 31.0702 51.3921C31.6855 51.3921 32.3189 51.1569 32.7894 50.6683L41.5658 41.8918V82.2274C41.5658 83.5846 42.6516 84.6704 44.0088 84.6704C45.366 84.6704 46.4517 83.5846 46.4517 82.2274V41.8918L55.2282 50.6683C56.1692 51.6274 57.7073 51.6274 58.6664 50.6683Z" fill="url(#paint1_linear_203_197)"/>
<defs>
<linearGradient id="paint0_linear_203_197" x1="0.23375" y1="3.50311" x2="61.5631" y2="86.1423" gradientUnits="userSpaceOnUse">
<stop stop-color="#F59839"/>
<stop offset="1" stop-color="#2C75FF"/>
</linearGradient>
<linearGradient id="paint1_linear_203_197" x1="28.7135" y1="33.6855" x2="73.025" y2="60.3429" gradientUnits="userSpaceOnUse">
<stop stop-color="#F59839"/>
<stop offset="1" stop-color="#2C75FF"/>
</linearGradient>
</defs>
</svg>
