<svg width="199" height="277" viewBox="0 0 199 277" fill="none" xmlns="http://www.w3.org/2000/svg">
<path opacity="0.866281" d="M178.205 276.856C153.034 276.856 126.392 257.059 99.1998 217.834C98.8323 217.467 99.0161 216.734 99.3835 216.551C99.751 216.184 100.302 216.367 100.67 216.734C128.597 256.693 155.422 276.306 180.778 274.839C201.356 273.74 215.503 259.442 230.57 244.412C245.268 229.565 260.518 214.168 282.566 213.068C307.187 211.785 332.726 228.648 358.448 263.108C358.816 263.475 358.632 264.208 358.265 264.391C357.897 264.758 357.346 264.575 356.978 264.208C331.623 230.298 306.635 213.618 282.75 214.901C261.437 216.001 246.371 231.031 232.039 245.695C217.524 260.359 202.458 275.389 181.145 276.672C180.043 276.672 179.124 276.856 178.205 276.856Z" fill="black"/>
<path d="M110.543 26.0543C110.466 26.0543 110.389 26.0543 110.313 25.9758L98.1534 14.5089C98.0765 14.4304 97.9995 14.3518 97.9995 14.1947C97.9995 14.1162 97.9995 13.9591 98.0765 13.8806L109.081 1.15708C109.158 1.07854 109.235 1 109.389 1C109.466 1 109.62 1 109.697 1.07854L121.856 12.5454C121.933 12.6239 122.01 12.7025 122.01 12.8596C122.01 12.9381 122.01 13.0952 121.933 13.1737L110.928 25.8972C110.774 25.9758 110.62 26.0543 110.543 26.0543Z" stroke="#0E0E0E" stroke-width="1.5"/>
<path opacity="0.866281" d="M1.48289 140.448L1.58187 140.277L25.0906 117.735C25.5586 117.32 26.1708 117.445 26.414 117.814C26.8282 118.281 26.7023 118.894 26.5043 119.237L2.99562 141.779C2.5276 142.194 1.9154 142.069 1.67225 141.701C1.15904 141.404 1.28492 140.791 1.48289 140.448Z" fill="black"/>
</svg>
