<svg width="195" height="268" viewBox="0 0 195 268" fill="none" xmlns="http://www.w3.org/2000/svg">
<path opacity="0.866281" d="M-47.4592 57.5747C-70.1948 57.5747 -94.258 39.7257 -118.819 4.35835C-119.151 4.02781 -118.985 3.36674 -118.653 3.20147C-118.321 2.87093 -117.823 3.0362 -117.491 3.36674C-92.2666 39.3952 -67.8715 57.0789 -45.1359 55.7568C-26.5491 54.7652 -13.7707 41.8742 -0.16259 28.3222C13.1137 14.9355 26.8878 1.05298 46.8021 0.0613715C69.0399 -1.09551 91.9414 14.1092 115.341 45.1796C115.673 45.5101 115.507 46.1712 115.175 46.3365C114.843 46.667 114.345 46.5018 114.013 46.1712C90.9457 15.7619 68.3761 0.887713 46.8021 1.87932C27.5516 2.87093 13.9434 16.4229 0.999077 29.6444C-12.1112 42.8658 -25.7194 56.4178 -44.9699 57.5747C-45.7997 57.5747 -46.6295 57.5747 -47.4592 57.5747Z" fill="#292929"/>
<path opacity="0.866281" d="M79.8374 266.767C79.7085 266.392 79.8308 266.141 79.9532 265.889L101.121 240.601C101.43 240.285 102.177 240.028 102.558 240.525C102.873 240.835 103.131 241.583 102.635 241.963L81.4672 267.252C81.1581 267.568 80.4109 267.825 80.0308 267.328C80.1531 267.077 79.9019 266.954 79.8374 266.767Z" fill="black"/>
<path fill-rule="evenodd" clip-rule="evenodd" d="M174.35 155.315C176.723 157.701 179.655 158.824 182.586 158.824C185.518 158.824 188.589 157.561 190.683 155.315C192.777 153.07 194.033 150.122 194.033 146.894C194.033 143.666 192.917 140.719 190.683 138.474C186.216 133.842 178.817 133.842 174.35 138.474C172.256 140.719 171 143.666 171 146.894C171 150.122 172.117 153.07 174.35 155.315ZM175.464 139.622C177.381 137.553 179.846 136.588 182.448 136.588C185.05 136.588 187.515 137.553 189.569 139.622C191.349 141.552 192.445 144.172 192.445 146.929C192.445 149.687 191.486 152.307 189.569 154.237C185.598 158.235 179.299 158.235 175.464 154.237C173.684 152.307 172.589 149.687 172.589 146.929C172.589 144.172 173.547 141.552 175.464 139.622Z" fill="black"/>
</svg>
