<svg width="98" height="13" viewBox="0 0 98 13" fill="none" xmlns="http://www.w3.org/2000/svg">
<path fill-rule="evenodd" clip-rule="evenodd" d="M8.0052 0.508802L9.37858 3.25251C9.51318 3.52186 9.77299 3.70864 10.0743 3.75186L13.1466 4.19409C13.9057 4.30369 14.2077 5.22366 13.6584 5.75079L11.4367 7.88556C11.2184 8.09548 11.119 8.39725 11.1706 8.69362L11.6949 11.7075C11.8241 12.453 11.0306 13.0218 10.3521 12.6691L7.60609 11.2452C7.33689 11.1055 7.01448 11.1055 6.7445 11.2452L3.99851 12.6691C3.32004 13.0218 2.52652 12.453 2.65643 11.7075L3.17996 8.69362C3.23161 8.39725 3.13222 8.09548 2.91389 7.88556L0.692215 5.75079C0.142861 5.22366 0.444927 4.30369 1.20401 4.19409L4.27632 3.75186C4.5776 3.70864 4.83819 3.52186 4.97279 3.25251L6.34539 0.508802C6.68502 -0.169601 7.66557 -0.169601 8.0052 0.508802Z" fill="#FF9500"/>
<path fill-rule="evenodd" clip-rule="evenodd" d="M28.8233 0.508557L30.1967 3.25227C30.3313 3.52162 30.5911 3.70839 30.8924 3.75161L33.9647 4.19385C34.7238 4.30344 35.0258 5.22341 34.4765 5.75055L32.2548 7.88531C32.0365 8.09524 31.9371 8.39701 31.9887 8.69338L32.5131 11.7072C32.6422 12.4528 31.8487 13.0216 31.1702 12.6689L28.4242 11.2449C28.155 11.1052 27.8326 11.1052 27.5626 11.2449L24.8166 12.6689C24.1382 13.0216 23.3446 12.4528 23.4745 11.7072L23.9981 8.69338C24.0497 8.39701 23.9503 8.09524 23.732 7.88531L21.5103 5.75055C20.961 5.22341 21.263 4.30344 22.0221 4.19385L25.0944 3.75161C25.3957 3.70839 25.6563 3.52162 25.7909 3.25227L27.1635 0.508557C27.5031 -0.169845 28.4837 -0.169845 28.8233 0.508557Z" fill="#FF9500"/>
<path fill-rule="evenodd" clip-rule="evenodd" d="M49.6415 0.508557L51.0149 3.25227C51.1495 3.52162 51.4093 3.70839 51.7106 3.75161L54.7829 4.19385C55.542 4.30344 55.8441 5.22341 55.2947 5.75055L53.0731 7.88531C52.8547 8.09524 52.7553 8.39701 52.807 8.69338L53.3313 11.7072C53.4604 12.4528 52.6669 13.0216 51.9884 12.6689L49.2424 11.2449C48.9732 11.1052 48.6508 11.1052 48.3809 11.2449L45.6349 12.6689C44.9564 13.0216 44.1629 12.4528 44.2928 11.7072L44.8163 8.69338C44.868 8.39701 44.7686 8.09524 44.5502 7.88531L42.3286 5.75055C41.7792 5.22341 42.0813 4.30344 42.8404 4.19385L45.9127 3.75161C46.214 3.70839 46.4745 3.52162 46.6091 3.25227L47.9817 0.508557C48.3214 -0.169845 49.3019 -0.169845 49.6415 0.508557Z" fill="#FF9500"/>
<path fill-rule="evenodd" clip-rule="evenodd" d="M70.4598 0.508557L71.8332 3.25227C71.9678 3.52162 72.2276 3.70839 72.5289 3.75161L75.6012 4.19385C76.3603 4.30344 76.6623 5.22341 76.113 5.75055L73.8913 7.88531C73.673 8.09524 73.5736 8.39701 73.6252 8.69338L74.1495 11.7072C74.2787 12.4528 73.4851 13.0216 72.8067 12.6689L70.0607 11.2449C69.7915 11.1052 69.4691 11.1052 69.1991 11.2449L66.4531 12.6689C65.7746 13.0216 64.9811 12.4528 65.111 11.7072L65.6345 8.69338C65.6862 8.39701 65.5868 8.09524 65.3685 7.88531L63.1468 5.75055C62.5975 5.22341 62.8995 4.30344 63.6586 4.19385L66.7309 3.75161C67.0322 3.70839 67.2928 3.52162 67.4274 3.25227L68.8 0.508557C69.1396 -0.169845 70.1202 -0.169845 70.4598 0.508557Z" fill="#FF9500"/>
<path fill-rule="evenodd" clip-rule="evenodd" d="M91.2779 0.508557L92.6513 3.25227C92.7859 3.52162 93.0457 3.70839 93.347 3.75161L96.4193 4.19385C97.1784 4.30344 97.4804 5.22341 96.9311 5.75055L94.7094 7.88531C94.4911 8.09524 94.3917 8.39701 94.4433 8.69338L94.9676 11.7072C95.0968 12.4528 94.3033 13.0216 93.6248 12.6689L90.8788 11.2449C90.6096 11.1052 90.2872 11.1052 90.0172 11.2449L87.2712 12.6689C86.5927 13.0216 85.7992 12.4528 85.9291 11.7072L86.4527 8.69338C86.5043 8.39701 86.4049 8.09524 86.1866 7.88531L83.9649 5.75055C83.4156 5.22341 83.7176 4.30344 84.4767 4.19385L87.549 3.75161C87.8503 3.70839 88.1109 3.52162 88.2455 3.25227L89.6181 0.508557C89.9577 -0.169845 90.9383 -0.169845 91.2779 0.508557Z" fill="#FF9500"/>
</svg>
