<svg width="1600" height="634" viewBox="0 0 1600 634" fill="none" xmlns="http://www.w3.org/2000/svg">
<path opacity="0.866281" d="M1620.06 633.747C1590.8 633.747 1559.84 610.739 1528.23 565.149C1527.81 564.723 1528.02 563.871 1528.45 563.658C1528.87 563.232 1529.51 563.445 1529.94 563.871C1562.4 610.313 1593.58 633.108 1623.05 631.404C1646.96 630.126 1663.41 613.509 1680.92 596.04C1698 578.783 1715.73 560.888 1741.35 559.61C1769.97 558.119 1799.65 577.718 1829.55 617.77C1829.97 618.196 1829.76 619.048 1829.33 619.261C1828.91 619.687 1828.27 619.474 1827.84 619.048C1798.37 579.636 1769.33 560.249 1741.57 561.74C1716.79 563.018 1699.28 580.488 1682.63 597.531C1665.76 614.574 1648.25 632.043 1623.47 633.534C1622.19 633.534 1621.13 633.747 1620.06 633.747Z" fill="black"/>
<path opacity="0.866281" d="M1499.92 315.804L1500 315.657L1520.16 296.33C1520.56 295.973 1521.08 296.081 1521.29 296.397C1521.65 296.798 1521.54 297.323 1521.37 297.617L1501.21 316.944C1500.81 317.301 1500.29 317.193 1500.08 316.877C1499.64 316.623 1499.75 316.098 1499.92 315.804Z" fill="black"/>
<path opacity="0.866281" d="M-146.851 66.9167C-173.276 66.9167 -201.243 46.1716 -229.79 5.06552C-230.175 4.68135 -229.983 3.91302 -229.597 3.72093C-229.211 3.33676 -228.632 3.52885 -228.247 3.91302C-198.929 45.7874 -170.575 66.3404 -144.151 64.8037C-122.548 63.6512 -107.696 48.6687 -91.8803 32.9177C-76.4499 17.3589 -60.4408 1.22384 -37.2952 0.0713295C-11.4492 -1.27326 15.1683 16.3985 42.3644 52.5103C42.7502 52.8945 42.5573 53.6628 42.1716 53.8549C41.7858 54.2391 41.2072 54.047 40.8214 53.6628C14.011 18.3193 -12.2207 1.03175 -37.2952 2.18426C-59.6693 3.33676 -75.4855 19.0877 -90.5301 34.4544C-105.768 49.8212 -121.584 65.5721 -143.958 66.9167C-144.922 66.9167 -145.887 66.9167 -146.851 66.9167Z" fill="#292929"/>
<path opacity="0.866281" d="M25.487 594.327C25.3698 593.987 25.481 593.759 25.5922 593.53L44.831 570.546C45.112 570.259 45.791 570.025 46.1365 570.477C46.4235 570.759 46.6578 571.439 46.2071 571.784L26.9682 594.769C26.6873 595.056 26.0082 595.289 25.6627 594.837C25.7739 594.609 25.5455 594.497 25.487 594.327Z" fill="black"/>
<path fill-rule="evenodd" clip-rule="evenodd" d="M86.8939 328.266C89.6521 331.039 93.0593 332.344 96.4665 332.344C99.8737 332.344 103.443 330.876 105.877 328.266C108.311 325.656 109.771 322.23 109.771 318.479C109.771 314.727 108.473 311.301 105.877 308.692C100.685 303.309 92.0858 303.309 86.8939 308.692C84.4602 311.301 83 314.727 83 318.479C83 322.23 84.298 325.656 86.8939 328.266ZM88.1886 310.026C90.4169 307.622 93.2817 306.5 96.3058 306.5C99.3298 306.5 102.195 307.622 104.582 310.026C106.651 312.269 107.924 315.314 107.924 318.519C107.924 321.724 106.81 324.769 104.582 327.013C99.9665 331.66 92.6451 331.66 88.1886 327.013C86.1195 324.769 84.8463 321.724 84.8463 318.519C84.8463 315.314 85.9604 312.269 88.1886 310.026Z" fill="black"/>
<path d="M1526.18 42C1526.08 42 1525.98 42 1525.88 41.8997L1510.2 27.2539C1510.1 27.1536 1510 27.0533 1510 26.8527C1510 26.7524 1510 26.5517 1510.1 26.4514L1524.29 10.2006C1524.39 10.1003 1524.49 10 1524.69 10C1524.79 10 1524.99 10 1525.09 10.1003L1540.77 24.7461C1540.87 24.8464 1540.97 24.9467 1540.97 25.1473C1540.97 25.2476 1540.97 25.4483 1540.87 25.5486L1526.68 41.7994C1526.48 41.8997 1526.28 42 1526.18 42Z" stroke="#0E0E0E" stroke-width="1.5"/>
</svg>
