<svg width="23" height="27" viewBox="0 0 23 27" fill="none" xmlns="http://www.w3.org/2000/svg">
<path d="M11.5 1L8.5 4.5H15L11.5 1Z" fill="black" stroke="black"/>
<path d="M12.5 26L15.5 22.5H9L12.5 26Z" fill="black" stroke="black"/>
<path d="M9.75949 17.8481V19.5H1.3674V17.8481H9.75949ZM9.56857 8.70068L2.13937 19.5H0.744843V18.1802L8.19895 7.41406H9.56857V8.70068ZM8.7966 7.41406V9.07422H0.794648V7.41406H8.7966ZM17.5818 9.02441L13.971 19.5H11.7879L16.3367 7.41406H17.7312L17.5818 9.02441ZM20.6033 19.5L16.9842 9.02441L16.8264 7.41406H18.2293L22.7947 19.5H20.6033ZM20.429 15.0176V16.6694H13.8548V15.0176H20.429Z" fill="black"/>
</svg>
