<svg width="23" height="27" viewBox="0 0 23 27" fill="none" xmlns="http://www.w3.org/2000/svg">
<path d="M11.5 1L8.5 4.5H15L11.5 1Z" fill="black" stroke="black"/>
<path d="M12.5 26L15.5 22.5H9L12.5 26Z" fill="black" stroke="black"/>
<path d="M6.07395 9.02441L2.46311 19.5H0.28L4.82883 7.41406H6.22336L6.07395 9.02441ZM9.09543 19.5L5.47629 9.02441L5.31857 7.41406H6.72141L11.2868 19.5H9.09543ZM8.92111 15.0176V16.6694H2.34689V15.0176H8.92111ZM22.2801 17.8481V19.5H13.888V17.8481H22.2801ZM22.0891 8.70068L14.6599 19.5H13.2654V18.1802L20.7195 7.41406H22.0891V8.70068ZM21.3172 7.41406V9.07422H13.3152V7.41406H21.3172Z" fill="black"/>
</svg>
