<svg width="616" height="117" viewBox="0 0 616 117" fill="none" xmlns="http://www.w3.org/2000/svg">
<path d="M51.4863 104.943L62.3567 111.219" stroke="black" stroke-width="2" stroke-linecap="round"/>
<path d="M59.2744 104.004L54.0444 113.063" stroke="black" stroke-width="2" stroke-linecap="round"/>
<path d="M247 37.9998C239.002 37.9998 241.146 51.2045 250 46.7775C253.598 44.9786 252.206 38.1493 250.556 35.5553C248.044 31.609 241.829 38.1135 239 39.9998" stroke="black" stroke-width="2" stroke-linecap="round"/>
<path d="M1 112C12.7766 85.8298 19.3311 67.7262 51.4444 62.4444C79.2201 57.8761 107.206 69.1993 133.333 77.1111C170.444 88.3489 206.409 96.734 245.444 95.5556C328.544 93.0469 405.048 68.2819 481.222 36.4444C528.105 16.8493 580.968 -7.1063 615 -46" stroke="black" stroke-width="2" stroke-linecap="round"/>
</svg>
