<svg width="83" height="70" viewBox="0 0 83 70" fill="none" xmlns="http://www.w3.org/2000/svg">
<rect x="2" y="1" width="60.6904" height="60.6904" rx="30.3452" fill="#BDEFFC" stroke="black" stroke-width="2"/>
<path d="M33.0801 1.4967V30.9154" stroke="black" stroke-width="2" stroke-linecap="round"/>
<path d="M32.4732 0.817117C32.2979 0.432308 31.8447 0.260031 31.4623 0.440363C25.6813 3.1661 20.7557 7.39258 17.2311 12.6613C13.5662 18.1397 11.5697 24.5155 11.4782 31.0333C11.3866 37.5511 13.2037 43.9379 16.7143 49.4371C20.0902 54.7253 24.896 58.9796 30.5992 61.7386C30.9791 61.9224 31.4333 61.7584 31.6174 61.3786C31.8075 60.9865 31.6373 60.5155 31.2453 60.3249C25.8274 57.6898 21.2616 53.6396 18.0507 48.6098C14.6988 43.3592 12.9638 37.2611 13.0513 31.0378C13.1387 24.8146 15.0449 18.7271 18.5442 13.4963C21.9007 8.47867 26.5882 4.45109 32.0894 1.8479C32.4761 1.66491 32.6505 1.20645 32.4732 0.817117Z" fill="#030303"/>
<path d="M52.4224 30.2788C52.8533 30.2722 53.1996 29.92 53.1878 29.4892C53.023 23.4636 51.2299 17.602 47.9851 12.5051C44.7354 7.40061 40.1516 3.25464 34.7078 0.486946C34.3314 0.295557 33.8737 0.450599 33.6819 0.82683C33.4837 1.21554 33.6448 1.69041 34.0333 1.88897C39.2036 4.53147 43.5576 8.47781 46.6479 13.332C49.7366 18.1836 51.4476 23.761 51.614 29.4956C51.6267 29.9333 51.9847 30.2855 52.4224 30.2788Z" fill="#030303"/>
<path d="M32.2397 30.9153H1.98059" stroke="black" stroke-width="2" stroke-linecap="round"/>
<path d="M36.2395 30.6545H77.6713C79.8805 30.6545 81.6713 32.4454 81.6713 34.6545V65C81.6713 67.2091 79.8805 69 77.6713 69H37.2395C35.0304 69 33.2395 67.2091 33.2395 65V33.6545C33.2395 31.9977 34.5826 30.6545 36.2395 30.6545Z" fill="white" stroke="black" stroke-width="2"/>
<path d="M53.3281 58.4945C52.9833 63.1019 59.4834 63.5265 59.6719 58.9477H64.9372C67.1711 58.935 67.68 55.7993 65.5648 55.0734C65.2899 54.9831 65.0507 54.8083 64.881 54.574C64.7114 54.3396 64.62 54.0577 64.62 53.7684C64.6091 53.1744 63.7246 53.1712 63.7137 53.7684C63.7134 54.2478 63.8643 54.7151 64.145 55.1038C64.4257 55.4924 64.8218 55.7826 65.277 55.933C65.5206 56.015 65.7272 56.1806 65.8602 56.4004C65.9933 56.6202 66.0442 56.88 66.0038 57.1338C65.9632 57.3873 65.8334 57.6179 65.6379 57.7843C65.4424 57.9507 65.1939 58.0418 64.9372 58.0414H53.7812C53.6611 58.0414 53.5458 58.0891 53.4608 58.1741C53.3759 58.2591 53.3281 58.3744 53.3281 58.4945ZM58.7656 59.0156C58.6505 62.0579 54.2602 61.9908 54.2344 58.9477H58.7656V59.0156ZM59.8939 41.1815C59.3493 40.9418 58.9763 41.7443 59.5137 42.0044C62.0653 43.1812 63.7137 45.7536 63.7137 48.5575V51.5028C63.7137 51.623 63.7615 51.7382 63.8465 51.8232C63.9314 51.9082 64.0467 51.9559 64.1669 51.9559C64.2871 51.9559 64.4023 51.9082 64.4873 51.8232C64.5723 51.7382 64.62 51.623 64.62 51.5028V48.5575C64.62 45.4015 62.7645 42.506 59.8939 41.1815ZM46.1026 57.2811C46.1773 57.7468 46.4158 58.1706 46.7751 58.4761C47.1345 58.7816 47.5911 58.9489 48.0628 58.9477H51.5156C52.1124 58.9341 52.111 58.0532 51.5156 58.0414H48.0628C47.8066 58.042 47.5585 57.9513 47.3631 57.7856C47.1677 57.6198 47.0378 57.3899 46.9966 57.137C46.9555 56.8833 47.0057 56.6232 47.1382 56.403C47.2706 56.1827 47.4769 56.0165 47.7202 55.9339C48.1761 55.7838 48.5729 55.4936 48.8541 55.1047C49.1353 54.7157 49.2866 54.2479 49.2862 53.768V48.557C49.2862 45.7536 50.9347 43.1812 53.4858 42.0044C54.4306 41.5678 55.4592 41.3424 56.5 41.3438C59.4929 41.2418 59.502 36.9185 56.5 36.8125C55.2507 36.8125 54.2344 37.8289 54.2344 39.0781C54.4795 41.4126 55.8384 40.0356 53.1061 41.1815C50.2355 42.506 48.38 45.4015 48.38 48.5575V53.7684C48.38 54.362 48.0003 54.8868 47.433 55.0748C46.9857 55.2252 46.6064 55.5296 46.3627 55.9337C46.119 56.3378 46.0269 56.8153 46.1026 57.2811ZM55.1406 39.0781C55.1877 37.2856 57.8127 37.286 57.8594 39.0781C57.8122 40.8707 55.1873 40.8702 55.1406 39.0781ZM56.5 51.9582C54.7074 52.0049 54.7079 54.6303 56.5 54.677C58.2926 54.6298 58.2921 52.0049 56.5 51.9582ZM56.5 53.7707C55.9046 53.7603 55.9046 52.8749 56.5 52.8645C57.0954 52.8749 57.0954 53.7603 56.5 53.7707Z" fill="#F59839"/>
<path d="M58.1979 46.5537C58.3492 44.9633 56.3147 44.0693 55.2462 45.2583C55.0868 45.432 54.9651 45.6368 54.8886 45.8598C54.8122 46.0828 54.7828 46.3192 54.8022 46.5542L55.0672 49.7333C55.1289 50.4724 55.7578 51.0519 56.5 51.0519C57.2422 51.0519 57.8712 50.4724 57.9328 49.7333L58.1979 46.5537ZM57.0302 49.6581C56.9821 50.2966 56.0183 50.2979 55.9699 49.6581L55.7048 46.4785C55.6364 45.3525 57.3632 45.3512 57.2953 46.4785L57.0302 49.6581ZM68.7344 48.5575C68.7344 48.4373 68.6867 48.322 68.6017 48.2371C68.5167 48.1521 68.4014 48.1043 68.2813 48.1043H66.4688C66.3486 48.1043 66.2333 48.1521 66.1484 48.2371C66.0634 48.322 66.0156 48.4373 66.0156 48.5575C66.0156 48.6776 66.0634 48.7929 66.1484 48.8779C66.2333 48.9628 66.3486 49.0106 66.4688 49.0106H68.2813C68.4014 49.0106 68.5167 48.9628 68.6017 48.8779C68.6867 48.7929 68.7344 48.6776 68.7344 48.5575ZM63.8696 41.8286L65.1511 40.5471C65.568 40.1271 64.9313 39.4891 64.5104 39.9064L63.2289 41.1883C62.812 41.6088 63.4487 42.2463 63.8696 41.829V41.8286ZM49.4508 41.9618C49.8382 41.9754 50.0607 41.4579 49.7711 41.1883L48.4897 39.9064C48.4479 39.8631 48.3979 39.8286 48.3426 39.8049C48.2873 39.7811 48.2279 39.7686 48.1677 39.7681C48.1075 39.7676 48.0479 39.779 47.9922 39.8018C47.9365 39.8246 47.8859 39.8582 47.8433 39.9008C47.8008 39.9433 47.7672 39.9939 47.7444 40.0496C47.7216 40.1053 47.7101 40.165 47.7106 40.2251C47.7112 40.2853 47.7237 40.3448 47.7474 40.4C47.7712 40.4553 47.8057 40.5053 47.849 40.5471L49.1304 41.829C49.1724 41.8711 49.2224 41.9046 49.2773 41.9274C49.3323 41.9501 49.3912 41.9618 49.4508 41.9618ZM46.5313 48.1043H44.7188C44.1238 48.1143 44.1229 49.0006 44.7188 49.0106H46.5313C47.1262 49.0006 47.1271 48.1143 46.5313 48.1043Z" fill="#F59839"/>
</svg>
