<svg width="69" height="70" viewBox="0 0 69 70" fill="none" xmlns="http://www.w3.org/2000/svg">
<path d="M57.0021 16.1403V59.4244C57.0021 64.0072 53.2755 67.7338 48.6927 67.7338H10.5705C5.96255 67.7338 2.26111 64.0072 2.26111 59.4244V16.1403C2.26111 11.5576 5.96255 7.83093 10.5705 7.83093H18.1496L17.5705 9.26618C16.7899 11.2302 18.2251 13.3705 20.3654 13.3705H38.8978C41.0381 13.3705 42.4733 11.2302 41.6927 9.26618L41.1136 7.83093H48.6927C53.2755 7.83093 57.0021 11.5576 57.0021 16.1403Z" fill="#BDEFFC"/>
<path d="M20.358 13.3807H38.9029C41.0281 13.3807 42.4835 11.2353 41.6954 9.26124L39.6583 4.15981C39.4356 3.60135 39.0503 3.12258 38.5525 2.78546C38.0547 2.44833 37.4671 2.26835 36.8659 2.2688H22.3925C21.1637 2.2688 20.0558 3.01916 19.6 4.15981L17.5655 9.26124C17.3838 9.71731 17.3165 10.211 17.3695 10.699C17.4226 11.1871 17.5943 11.6548 17.8698 12.0611C18.1453 12.4675 18.5161 12.8003 18.9498 13.0303C19.3835 13.2603 19.867 13.3806 20.358 13.3807Z" fill="white"/>
<path d="M38.8978 13.3705H20.3654C18.2251 13.3705 16.7899 11.2303 17.5704 9.26623L18.1496 7.83098L19.61 4.15472C20.0632 3.02163 21.1712 2.26624 22.405 2.26624H36.8582C38.092 2.26624 39.1999 3.02163 39.6532 4.15472L41.1136 7.83098L41.6927 9.26623C42.4733 11.2303 41.0381 13.3705 38.8978 13.3705ZM64.9312 41.9824C66.9103 43.9615 66.9103 47.1695 64.9312 49.1486L47.819 66.2608C47.5533 66.5257 47.2119 66.7017 46.842 66.7644L41.2924 67.7011C41.0081 67.7494 40.7164 67.7289 40.4417 67.6414C40.1669 67.5538 39.9172 67.4017 39.7133 67.1978C39.5094 66.994 39.3573 66.7442 39.2697 66.4695C39.1822 66.1947 39.1617 65.903 39.21 65.6187L40.1467 60.0691C40.2094 59.6992 40.3854 59.3578 40.6503 59.0921L57.7625 41.9799C58.7137 41.0301 60.0032 40.4969 61.3474 40.4974C62.6916 40.4978 63.9806 41.032 64.9312 41.9824Z" fill="white"/>
<path d="M29.2565 65.4651H10.573C8.97111 65.4638 7.43517 64.827 6.30222 63.6945C5.16926 62.562 4.53185 61.0264 4.52985 59.4245V16.1378C4.52985 12.8065 7.24172 10.0946 10.573 10.0946H15.128C15.0676 11.2277 15.3396 12.3658 15.9942 13.3328C16.4767 14.0461 17.1269 14.6301 17.8877 15.0335C18.6485 15.437 19.4967 15.6475 20.3579 15.6468H38.9054C40.6554 15.6468 42.287 14.7806 43.269 13.3328C43.9237 12.3658 44.1957 11.2277 44.1352 10.0946H48.6978C52.0316 10.0946 54.741 12.8065 54.741 16.1378V31.0443C54.741 31.6453 54.9797 32.2217 55.4047 32.6467C55.8297 33.0717 56.4061 33.3104 57.0072 33.3104C57.6082 33.3104 58.1846 33.0717 58.6096 32.6467C59.0346 32.2217 59.2734 31.6453 59.2734 31.0443V16.1378C59.2734 10.3061 54.5295 5.56225 48.6978 5.56225H42.6622L41.7658 3.31621C41.3776 2.33556 40.703 1.49464 39.8298 0.903094C38.9567 0.311552 37.9255 -0.00315144 36.8708 2.37927e-05H22.395C20.2244 2.37927e-05 18.3032 1.30434 17.5 3.31873L16.6011 5.56477H10.5755C7.77175 5.5681 5.08376 6.68338 3.10118 8.66595C1.11861 10.6485 0.00333189 13.3365 0 16.1403V59.4245C0 65.2536 4.74388 70 10.5755 70H29.259C29.8603 69.9997 30.4369 69.7605 30.8619 69.335C31.2869 68.9095 31.5255 68.3327 31.5252 67.7313C31.5248 67.1299 31.2856 66.5533 30.8602 66.1283C30.4347 65.7033 29.8578 65.4648 29.2565 65.4651ZM19.6705 10.0997L21.7075 4.99822C21.762 4.86095 21.8563 4.74317 21.9784 4.66013C22.1006 4.57708 22.2448 4.53258 22.3924 4.5324H36.8683C37.0162 4.53154 37.1609 4.57562 37.2832 4.65881C37.4055 4.74199 37.4997 4.86035 37.5532 4.99822L39.5903 10.0997C39.6366 10.2118 39.6539 10.3337 39.6407 10.4543C39.6275 10.5749 39.5842 10.6902 39.5147 10.7896C39.4484 10.891 39.3576 10.9739 39.2506 11.0307C39.1436 11.0875 39.024 11.1163 38.9029 11.1144H20.3554C20.2344 11.1158 20.1149 11.0868 20.008 11.0301C19.9011 10.9733 19.8101 10.8906 19.7435 10.7896C19.6751 10.6897 19.6326 10.5743 19.6198 10.4539C19.6071 10.3334 19.6245 10.2117 19.6705 10.0997Z" fill="black"/>
<path d="M46.0464 33.6906C46.0464 33.0896 45.8076 32.5132 45.3826 32.0882C44.9576 31.6632 44.3812 31.4244 43.7802 31.4244H26.8568C26.2558 31.4244 25.6794 31.6632 25.2544 32.0882C24.8294 32.5132 24.5906 33.0896 24.5906 33.6906C24.5906 34.2917 24.8294 34.8681 25.2544 35.2931C25.6794 35.7181 26.2558 35.9568 26.8568 35.9568H43.7802C45.0341 35.9568 46.0464 34.9446 46.0464 33.6906ZM17.7744 31.427H15.4805C14.8795 31.427 14.3031 31.6657 13.8781 32.0907C13.4531 32.5157 13.2144 33.0921 13.2144 33.6931C13.2144 34.2942 13.4531 34.8706 13.8781 35.2956C14.3031 35.7206 14.8795 35.9593 15.4805 35.9593H17.7769C18.378 35.959 18.9543 35.7199 19.379 35.2947C19.8038 34.8695 20.0422 34.2929 20.0419 33.6919C20.0415 33.0909 19.8025 32.5146 19.3772 32.0898C18.952 31.6651 18.3755 31.4266 17.7744 31.427ZM26.8644 45.1701C26.2633 45.1701 25.6869 45.4089 25.2619 45.8339C24.8369 46.2589 24.5982 46.8353 24.5982 47.4363C24.5982 48.0373 24.8369 48.6137 25.2619 49.0387C25.6869 49.4637 26.2633 49.7025 26.8644 49.7025H38.0694C38.6704 49.7025 39.2468 49.4637 39.6718 49.0387C40.0968 48.6137 40.3356 48.0373 40.3356 47.4363C40.3356 46.8353 40.0968 46.2589 39.6718 45.8339C39.2468 45.4089 38.6704 45.1701 38.0694 45.1701H26.8644ZM17.7744 45.1726H15.4805C14.8795 45.1726 14.3031 45.4114 13.8781 45.8364C13.4531 46.2614 13.2144 46.8378 13.2144 47.4388C13.2144 48.0399 13.4531 48.6163 13.8781 49.0413C14.3031 49.4663 14.8795 49.705 15.4805 49.705H17.7769C18.0745 49.7048 18.3692 49.6461 18.6441 49.532C18.919 49.418 19.1687 49.2509 19.379 49.0404C19.5893 48.8298 19.7561 48.5799 19.8699 48.3049C19.9836 48.0299 20.042 47.7352 20.0419 47.4376C20.0417 47.14 19.9829 46.8453 19.8689 46.5704C19.7548 46.2955 19.5878 46.0458 19.3772 45.8355C19.1667 45.6252 18.9168 45.4584 18.6418 45.3447C18.3667 45.2309 18.072 45.1725 17.7744 45.1726ZM66.5327 40.3809C63.7629 37.6111 58.9309 37.6111 56.1611 40.3809L39.0489 57.4931C38.4495 58.0909 38.0523 58.8614 37.9133 59.6964L36.9741 65.2435C36.8668 65.8853 36.9143 66.5434 37.1127 67.1632C37.3111 67.7829 37.6547 68.3463 38.1147 68.8064C38.5753 69.264 39.1382 69.6055 39.7569 69.8025C40.3755 69.9995 41.0322 70.0465 41.6726 69.9395L47.2147 69.0028C48.0582 68.8618 48.8212 68.469 49.4205 67.8672L66.5327 50.755C67.9067 49.3784 68.6784 47.5129 68.6784 45.568C68.6784 43.623 67.9067 41.7575 66.5327 40.3809ZM46.3208 64.5536L41.5543 65.3593L42.3575 60.5928L54.2827 48.6676L58.2435 52.6284L46.3208 64.5536ZM63.3298 47.5446L61.4514 49.423L57.4906 45.4622L59.369 43.5838C59.9016 43.073 60.6109 42.7875 61.3489 42.7871C62.0869 42.7866 62.7965 43.0711 63.3298 43.5813C64.4201 44.6766 64.4201 46.4543 63.3298 47.5446Z" fill="black"/>
</svg>
