<svg width="73" height="72" viewBox="0 0 73 72" fill="none" xmlns="http://www.w3.org/2000/svg">
<path d="M23.4993 14.5095V23.6622C23.4993 25.3191 24.8424 26.6622 26.4993 26.6622H36.1382" stroke="black" stroke-width="2" stroke-linecap="round"/>
<path d="M23.9855 14.5095L36.1383 26.6623" stroke="black" stroke-width="2" stroke-linecap="round"/>
<path d="M38.8891 1.94421H4.41938C2.51637 1.94421 0.972412 3.49841 0.972412 5.41404V65.5577C0.972412 67.4734 2.51637 69.0276 4.41938 69.0276H48.081C49.984 69.0276 51.528 67.4734 51.528 65.5577V5.94421C51.528 3.73507 49.7371 1.94421 47.528 1.94421H38.8891Z" fill="white" stroke="black" stroke-width="1.5"/>
<path d="M11.6906 30.8243H40.8572" stroke="black" stroke-width="1.5" stroke-linecap="round"/>
<path d="M11.6906 42.6625H40.8572" stroke="black" stroke-width="1.5" stroke-linecap="round"/>
<path d="M11.6906 55.6838H24.6535" stroke="black" stroke-width="1.5" stroke-linecap="round"/>
<rect x="11.7812" y="11.7587" width="30" height="8.40779" rx="1.25" fill="#BBEAF6" stroke="black" stroke-width="1.5"/>
<path d="M61.7368 6.10059C61.7368 3.33917 63.9754 1.10059 66.7368 1.10059H67.7455C70.5069 1.10059 72.7455 3.33916 72.7455 6.10059V8.43969H61.7368V6.10059Z" fill="white"/>
<path d="M72.1341 62.2599V8.43982H62.3486V62.2599H72.1341Z" fill="#FFE0AB"/>
<path d="M62.3486 61.2502V5.99357C62.3486 3.29138 64.5392 1.10083 67.2414 1.10083V1.10083C69.9436 1.10083 72.1341 3.29138 72.1341 5.99356V61.2502M62.3486 61.2502L72.1341 61.2502M62.3486 61.2502L67.853 69.5991L72.1341 61.2502" stroke="black" stroke-width="1.5"/>
<path d="M62.3486 9.33337H72.1341" stroke="black" stroke-width="1.5"/>
</svg>
