<svg width="82" height="72" viewBox="0 0 82 72" fill="none" xmlns="http://www.w3.org/2000/svg">
<rect y="24.3334" width="61.8331" height="46.6665" rx="7" fill="white"/>
<path d="M1.16699 31.9164L28.8366 51.9C31.0836 53.5228 34.1498 53.3953 36.2543 51.5914L49.0002 40.6664" stroke="black" stroke-width="1.5"/>
<path d="M20.9998 52.9167L4.6665 69.25" stroke="black" stroke-width="1.5"/>
<path d="M44.333 52.3329L60.083 68.6662" stroke="black" stroke-width="1.5"/>
<path d="M39.0835 24.3334H7.167C3.85329 24.3334 1.16699 27.0197 1.16699 30.3334V64.9999C1.16699 68.3136 3.85328 70.9999 7.16699 70.9999H56.4168C59.7305 70.9999 62.4168 68.3136 62.4168 64.9999V45.3333" stroke="black" stroke-width="1.5"/>
<path d="M52.043 36.3373C58.6714 30.7765 66.6678 27.2682 69.8194 26.2901C66.2065 22.1955 57.0297 13.5004 53.5613 10.032C53.8072 15.9328 48.2318 23.9948 44.0405 28.7917C42.9504 30.0394 42.9704 31.9136 44.203 33.0208C45.1593 33.8798 46.3734 34.9632 47.8687 36.3177C49.0408 37.3794 50.8314 37.3537 52.043 36.3373Z" fill="#BEEEFF"/>
<path d="M53.9226 34.9621L45.6129 27.375L44.8284 28.1595C43.2663 29.7216 43.2663 32.2542 44.8284 33.8163L47.12 36.1079C48.6821 37.67 51.2147 37.67 52.7768 36.1079L53.9226 34.9621Z" fill="#FFC784"/>
<path d="M53.1993 34.9611L48.8638 30.6256" stroke="black" stroke-width="1.5" stroke-linecap="round"/>
<path d="M58.6189 32.0713L61.6932 37.1021C62.2003 37.9318 61.9801 39.0123 61.1888 39.5776V39.5776C60.5215 40.0542 59.6203 40.0358 58.9729 39.5324L53.5608 35.3229" stroke="black" stroke-width="1.5" stroke-linecap="round"/>
<path d="M66.2061 1V6.05808M76.3222 5.3355L73.4319 8.22583M75.5996 15.4517H80.6577" stroke="black" stroke-width="1.5" stroke-linecap="round"/>
<path d="M52.043 36.3373C58.6714 30.7765 66.6678 27.2682 69.8194 26.2901C66.2065 22.1955 57.0297 13.5004 53.5613 10.032C53.8072 15.9328 48.2318 23.9948 44.0405 28.7917C42.9504 30.0394 42.9704 31.9136 44.203 33.0208C45.1593 33.8798 46.3734 34.9632 47.8687 36.3177C49.0408 37.3794 50.8314 37.3537 52.043 36.3373Z" stroke="black" stroke-width="1.5" stroke-linecap="round"/>
<path d="M69.998 26.1447L53.7795 10.2158C52.6497 9.10616 52.6023 7.30081 53.6724 6.13344C54.7961 4.90765 56.712 4.85754 57.8982 6.02291L74.1142 21.9544C75.3142 23.1334 75.2806 25.0775 74.0405 26.2143C72.8889 27.2699 71.1125 27.2393 69.998 26.1447Z" stroke="black" stroke-width="1.5" stroke-linecap="round"/>
</svg>
