<svg width="70" height="70" viewBox="0 0 70 70" fill="none" xmlns="http://www.w3.org/2000/svg">
<path d="M25.5291 69.8635C25.8153 69.7474 26.0939 69.6167 26.3639 69.4721C26.0659 69.4466 25.7695 69.4038 25.4765 69.3439C25.2052 69.4596 24.9263 69.5611 24.6409 69.6475C24.9331 69.7361 25.2296 69.8081 25.5291 69.8635ZM25.4765 54.2851C25.7667 54.2258 26.0629 54.1827 26.3641 54.157C26.094 54.0124 25.8153 53.8816 25.5291 53.7655C25.2269 53.8214 24.9305 53.8937 24.6409 53.9815C24.9263 54.0679 25.2051 54.1694 25.4765 54.2851Z" fill="#F59839" stroke="black"/>
<path d="M27.0238 54.129C31.2767 54.129 34.7227 57.5706 34.7227 61.8145C34.7227 66.0584 31.2768 69.5 27.024 69.5C22.7711 69.5 19.325 66.0582 19.325 61.8144C19.325 57.5706 22.7709 54.129 27.0238 54.129Z" fill="#F59839" stroke="black"/>
<path d="M27.8836 13.5506L27.8828 13.5507C27.5305 13.622 27.1724 13.6489 26.8167 13.6321C28.4745 12.4424 29.3751 10.3555 28.9464 8.22622C28.6679 6.8427 27.8783 5.69224 26.8148 4.9305C28.9357 4.82636 30.8704 6.28303 31.3011 8.42335C31.7752 10.7805 30.2462 13.0767 27.8836 13.5506Z" fill="#F59839" stroke="black"/>
<path d="M22.7465 10.1386L22.7465 10.1386C23.2211 12.4966 25.5201 14.0246 27.8837 13.5507C30.2463 13.0766 31.7752 10.7807 31.3013 8.42345L22.7465 10.1386ZM22.7465 10.1386C22.2719 7.78154 23.8014 5.48557 26.164 5.01147L22.7465 10.1386ZM26.1641 5.01147C28.527 4.53749 30.8265 6.06556 31.3013 8.42332L26.1641 5.01147Z" fill="#F59839" stroke="black"/>
<path d="M51.1985 49.092L51.1986 49.0921C51.8908 49.668 52.4479 50.3892 52.8302 51.2044C53.2125 52.0197 53.4108 52.9091 53.411 53.8095C53.411 53.8096 53.411 53.8096 53.411 53.8096V53.8758C53.411 57.2267 50.6897 59.9446 47.3314 59.9446H40.5541C42.6191 58.7099 44.0018 56.4544 44.0018 53.8758V53.8095V53.8094C44.0015 52.7622 43.7708 51.728 43.3262 50.7799C42.8816 49.8319 42.2339 48.9932 41.429 48.3234L41.429 48.3234L40.158 47.266C37.3502 44.9282 35.727 41.4672 35.727 37.8178V30.7864C35.727 22.7863 30.7597 15.9467 23.7385 13.1699C24.8659 12.9521 26.0128 12.8424 27.1636 12.8431H27.1639C37.0906 12.8431 45.1369 20.8776 45.1369 30.7862V37.8177C45.1369 41.7647 46.8923 45.507 49.9279 48.0345L49.928 48.0345L51.1985 49.092Z" fill="#F59839" stroke="black"/>
<path d="M2.92676 49.0947L2.92659 49.0949C2.21194 49.67 1.63529 50.398 1.23901 51.2253C0.842755 52.0527 0.636947 52.9582 0.636719 53.8755L2.92676 49.0947ZM2.92676 49.0947L4.23139 48.0438C4.23142 48.0438 4.23144 48.0438 4.23147 48.0438C7.36706 45.519 9.19066 41.7128 9.19066 37.6903V30.7867C9.19066 20.8775 17.2366 12.8435 27.1638 12.8435C37.0904 12.8435 45.1369 20.8775 45.1369 30.7867V37.8182V37.8183M2.92676 49.0947L45.1369 37.8183M45.1369 37.8183C45.1373 39.7683 45.5667 41.6944 46.3947 43.4599C47.2227 45.2254 48.4289 46.7871 49.928 48.0343C49.928 48.0344 49.928 48.0344 49.928 48.0344L51.1985 49.0918L51.1986 49.0919M45.1369 37.8183L51.1986 49.0919M51.1986 49.0919C51.8908 49.6678 52.4478 50.389 52.8302 51.2043C53.2125 52.0195 53.4108 52.9089 53.4109 53.8093C53.4109 53.8094 53.4109 53.8094 53.4109 53.8094V53.8755C53.4109 57.2265 50.6897 59.9444 47.3308 59.9444H46.8308M51.1986 49.0919L46.8308 59.9444M46.8308 59.9444V59.9447M46.8308 59.9444V59.9447M46.8308 59.9447H6.71699C3.358 59.9447 0.636783 57.2266 0.636719 53.8756L46.8308 59.9447Z" fill="#F59839" stroke="black"/>
<path d="M48.635 0.577393C52.6784 3.44575 55.3161 8.15981 55.3161 13.4892C55.3161 22.2312 48.218 29.3181 39.4616 29.3181C38.0239 29.3192 36.5927 29.125 35.2073 28.7409C37.7963 30.578 40.9622 31.6579 44.3807 31.6579C53.1366 31.6579 60.2353 24.571 60.2353 15.8289C60.2353 8.55821 55.3252 2.43376 48.635 0.577393Z" fill="#BDEFFC"/>
<path d="M44.3806 0.5C52.8617 0.5 59.7352 7.36385 59.7352 15.8289C59.7352 24.2941 52.8617 31.1579 44.3806 31.1579C35.8996 31.1579 29.0256 24.2939 29.0256 15.8289C29.0256 7.36387 35.8996 0.5 44.3806 0.5Z" fill="#BDEFFC" stroke="black"/>
<path d="M44.3807 23.222C43.7693 23.222 43.2737 22.7273 43.2737 22.117V11.4583L42.8608 11.8348C42.409 12.2459 41.7088 12.2139 41.2972 11.7626C41.1992 11.6554 41.1234 11.53 41.074 11.3935C41.0246 11.257 41.0027 11.1121 41.0094 10.9671C41.016 10.8221 41.0513 10.6799 41.113 10.5485C41.1748 10.4171 41.2618 10.2992 41.3692 10.2015L43.6346 8.13901C43.7934 7.99463 43.9906 7.89941 44.2024 7.8649C44.4142 7.83039 44.6314 7.85807 44.8278 7.94459C45.024 8.03095 45.1908 8.17252 45.3079 8.35205C45.425 8.53157 45.4873 8.74129 45.4873 8.95563V22.117C45.4873 22.7273 44.9917 23.222 44.3807 23.222Z" fill="#F59839"/>
</svg>
