<svg width="70" height="70" viewBox="0 0 70 70" fill="none" xmlns="http://www.w3.org/2000/svg">
<path d="M26.6139 55.554C26.7939 58.0784 28.8772 60.0996 31.4059 60.2078C32.7914 60.2671 34.0574 59.7652 34.9998 58.9115V68.6328H12.586C10.5351 68.6328 8.87244 66.9702 8.87244 64.9192V42.5054H34.9997V51.4598C34.1076 50.6526 32.9255 50.1598 31.6265 50.1598C28.7296 50.1598 26.4043 52.6124 26.6139 55.554Z" fill="white"/>
<path d="M53.8879 68.6326H57.4137C59.4647 68.6326 61.1273 66.97 61.1273 64.919V42.5053H51.9901C52.6692 41.5939 53.0468 40.4446 52.9747 39.2049C52.8291 36.7036 50.8129 34.6635 48.3133 34.4914C45.3765 34.2892 42.9313 36.6117 42.9313 39.5052C42.9296 40.5862 43.2782 41.6388 43.9248 42.5052H35V51.46C34.055 50.6038 32.7829 50.1022 31.3934 50.1651C28.8654 50.2795 26.787 52.3052 26.6131 54.8298C26.4108 57.7668 28.7333 60.2121 31.6269 60.2121C32.9251 60.2121 34.1082 59.7197 35 58.9118V68.6324L53.8879 68.6326Z" fill="#F59839"/>
<path d="M37.6256 2.45254L53.4745 18.3014L47.0139 24.762C46.8487 23.6384 46.3037 22.5596 45.3774 21.7342C43.5071 20.0676 40.6393 20.049 38.7492 21.6932C36.5272 23.6261 36.4395 26.9996 38.4862 29.0462C39.2495 29.812 40.2405 30.3099 41.3106 30.4652L35 36.776L28.4088 30.1848C28.3496 31.3863 27.8618 32.5704 26.9444 33.4878C24.9809 35.4513 21.7918 35.4466 19.8229 33.4776C17.8539 31.5087 17.8493 28.3195 19.8126 26.356C20.73 25.4386 21.9141 24.9508 23.1165 24.8924L16.5254 18.3012L32.3739 2.45254C33.8242 1.00231 36.1754 1.00231 37.6256 2.45254Z" fill="#BDEFFC"/>
<path d="M61.1273 41.1381H54.1379C54.3111 40.4821 54.3793 39.8027 54.3399 39.1254C54.1537 35.9261 51.6033 33.3473 48.4073 33.1273C44.7621 32.8769 41.5641 35.8429 41.5641 39.5052C41.5641 40.0634 41.6351 40.6109 41.7734 41.1379L8.87248 41.1381C8.1175 41.1381 7.50525 41.7503 7.50525 42.5053V64.9192C7.50525 67.7206 9.78443 70 12.5859 70L41.8069 69.9997C42.5619 69.9997 43.1742 69.3874 43.1742 68.6325C43.1742 67.8775 42.5619 67.2652 41.8069 67.2652H36.3673V58.9118C36.3673 57.748 34.9419 57.1191 34.0818 57.8982C33.4084 58.506 32.534 58.8432 31.6269 58.8448C29.6111 58.8448 27.9213 57.1074 27.9696 55.0951C28.0174 53.117 29.7382 51.4819 31.715 51.5291C32.6532 51.5508 33.4304 51.9496 34.1465 52.5234C35.0244 53.228 36.3674 52.5847 36.3674 51.46V43.8724H43.9248C45.0258 43.8724 45.6807 42.5737 45.0212 41.6883C44.5485 41.0537 44.2987 40.2989 44.2987 39.5051C44.2987 37.4062 46.1288 35.7098 48.2197 35.8552C50.046 35.981 51.5038 37.455 51.6101 39.2841C51.6611 40.1596 51.4135 40.991 50.894 41.6883C50.235 42.5733 50.8888 43.8724 51.9905 43.8724H59.7603V64.9191C59.7603 66.2127 58.7078 67.2652 57.4142 67.2652H53.8882C53.1332 67.2652 52.521 67.8775 52.521 68.6325C52.521 69.3874 53.1332 69.9997 53.8882 69.9997H57.4142C60.2156 69.9997 62.4948 67.7205 62.4948 64.9191V42.5053C62.4945 41.7503 61.8824 41.1381 61.1273 41.1381ZM33.6325 67.2656H12.586C11.2923 67.2656 10.2399 66.2131 10.2399 64.9193V43.8727H33.6325V49.1127C32.8948 48.8694 32.1072 48.7644 31.3316 48.7995C27.8963 48.9525 25.1475 51.9193 25.2362 55.3484C25.3189 58.8682 28.3568 61.7052 31.8706 61.5747C32.4697 61.5523 33.0628 61.4462 33.6325 61.2595V67.2656Z" fill="black"/>
<path d="M20.49 24.1998C19.882 24.5062 19.3269 24.9077 18.8456 25.3893C16.3521 27.883 16.3566 31.945 18.8557 34.4443C21.3549 36.9435 25.4171 36.948 27.9109 34.4544C28.3925 33.9732 28.794 33.4181 29.1004 32.8102L34.0329 37.7426C34.5594 38.2689 35.4399 38.2689 35.9665 37.7426L42.2771 31.432C43.0573 30.6516 42.5979 29.2715 41.5078 29.1123C40.7249 28.9981 40.0144 28.641 39.4528 28.0793C37.9672 26.5938 38.065 24.1 39.6464 22.7245C41.0273 21.523 43.1003 21.5363 44.4677 22.7549C45.1221 23.3382 45.5348 24.1008 45.6612 24.9605C45.821 26.0492 47.2003 26.509 47.9807 25.7286L54.4414 19.268C54.9674 18.7421 54.9672 17.8606 54.4414 17.3344L38.5926 1.48581H38.5924C36.6116 -0.495038 33.3882 -0.495175 31.4072 1.48581L15.5584 17.3346C15.0245 17.8685 15.0245 18.7343 15.5584 19.2683L20.49 24.1998ZM33.3409 3.41935C34.2554 2.50453 35.7444 2.50453 36.659 3.41935L51.5411 18.3014L47.565 22.2773C47.2241 21.692 46.7928 21.1642 46.2872 20.7135C43.8951 18.5818 40.2688 18.5594 37.8519 20.6615C35.0949 23.0601 34.9281 27.4215 37.5196 30.013C37.9088 30.4031 38.3467 30.7415 38.8224 31.0197L34.9999 34.8423L29.3755 29.2179C28.5524 28.3953 27.1003 28.9601 27.043 30.1176C26.9991 31.0233 26.6191 31.8801 25.9774 32.5208C24.5499 33.9482 22.2223 33.9438 20.7894 32.5106C19.3563 31.0777 19.3516 28.7502 20.7793 27.3228C21.4199 26.6811 22.2769 26.3014 23.1826 26.258C24.3416 26.2018 24.906 24.7485 24.0832 23.9255L18.4588 18.3011L33.3409 3.41935ZM49.1713 68.1092C48.7008 66.979 47.0332 67.0199 46.6219 68.1722C46.2041 69.3424 47.5042 70.4299 48.5827 69.8211C49.1777 69.485 49.4298 68.7396 49.1713 68.1092Z" fill="black"/>
</svg>
