<svg width="57" height="72" viewBox="0 0 57 72" fill="none" xmlns="http://www.w3.org/2000/svg">
<g clip-path="url(#clip0_409_345)">
<path d="M24.9328 60.4584C22.7842 60.3665 21.0096 58.6439 20.8568 56.5005C20.6783 53.9961 22.6565 51.9097 25.1212 51.9097C26.2266 51.9097 27.2313 52.3282 27.9913 53.0159L29.2445 54.1497V52.4598V43.5052V42.7552H28.4945H2.36719H1.61719V43.5052V65.9191C1.61719 68.3843 3.61568 70.3827 6.08073 70.3827H28.4946H29.2446V69.6327V59.9114V58.2201L27.9911 59.3555C27.1885 60.0825 26.1129 60.509 24.9328 60.4584Z" fill="white" stroke="black" stroke-width="1.5"/>
<path d="M55.372 42.7552V43.5052V65.9189C55.372 68.3841 53.3737 70.3825 50.9085 70.3825H47.3827L28.4947 70.3823H27.7448V69.6323V61.333C26.9576 61.7349 26.0658 61.9619 25.1217 61.9619C21.7965 61.9619 19.1272 59.1515 19.3596 55.7781C19.5598 52.8724 21.9462 50.5474 24.8542 50.4157C25.8969 50.3685 26.8833 50.5987 27.7448 51.0386V43.505V42.755H28.4948H36.131C35.8314 42.0471 35.6749 41.2819 35.6761 40.5039M55.372 42.7552H54.622L47 42.5M55.372 42.7552L47 42.5ZM35.6761 40.5039C35.6767 37.1794 38.4867 34.5108 41.8596 34.7431C44.7362 34.9412 47.0507 37.2835 47.2182 40.1612C47.2718 41.0837 47.3348 41.7092 47 42.5" fill="#FFE0AB"/>
<path d="M55.372 42.7552V43.5052V65.9189C55.372 68.3841 53.3737 70.3825 50.9085 70.3825H47.3827L28.4947 70.3823H27.7448V69.6323V61.333C26.9576 61.7349 26.0658 61.9619 25.1217 61.9619C21.7965 61.9619 19.1272 59.1515 19.3596 55.7781C19.5598 52.8724 21.9462 50.5474 24.8542 50.4157C25.8969 50.3685 26.8833 50.5987 27.7448 51.0386V43.505V42.755H28.4948H36.131C35.8314 42.0471 35.6749 41.2819 35.6761 40.5039M55.372 42.7552H54.622L47 42.5M55.372 42.7552L47 42.5M35.6761 40.5039V40.5051M35.6761 40.5039C35.6767 37.1794 38.4867 34.5108 41.8596 34.7431C44.7362 34.9412 47.0507 37.2835 47.2182 40.1612C47.2718 41.0837 47.3348 41.7092 47 42.5" stroke="black" stroke-width="1.5"/>
<path d="M47.4995 19.8316L48.0299 19.3012L47.4995 18.7709L31.6507 2.92208C29.9076 1.17897 27.0815 1.17897 25.3384 2.92208L9.4898 18.7708L8.95947 19.3011L9.4898 19.8314L15.0752 25.4168C14.2346 25.6888 13.4442 26.1584 12.777 26.8256C10.5194 29.0834 10.5269 32.7474 12.7873 35.0079C15.0477 37.2683 18.7117 37.2758 20.9695 35.018C21.6366 34.3508 22.1062 33.5604 22.3784 32.7201L27.9644 38.3062L28.4947 38.8365L29.0251 38.3062L35.3357 31.9954L36.3933 30.9377L34.9131 30.7229C34.0034 30.5908 33.161 30.1676 32.5121 29.5166L32.5112 29.5157C30.7699 27.7744 30.8444 24.9045 32.7362 23.2589C34.3412 21.8627 36.7844 21.8782 38.3732 23.294C39.1633 23.998 39.6261 24.915 39.7666 25.8709L39.9836 27.3475L41.0389 26.2922L47.4995 19.8316Z" fill="#E4F8FF"/>
<path d="M25.3384 2.92208C27.0815 1.17897 29.9076 1.17897 31.6507 2.92208L47.4995 18.7709L48.0299 19.3012L47.4995 19.8316L41.0389 26.2922L39.9836 27.3475L39.7666 25.8709C39.6261 24.915 39.1633 23.998 38.3732 23.294C36.7844 21.8782 34.3412 21.8627 32.7362 23.2589C30.8444 24.9045 30.7699 27.7744 32.5112 29.5157L32.5121 29.5166C33.161 30.1676 34.0034 30.5908 34.9131 30.7229L36.3933 30.9377L35.3357 31.9954L29.0251 38.3062L28.4947 38.8365L27.9644 38.3062L22.3784 32.7201C22.1062 33.5604 21.6366 34.3508 20.9695 35.018C18.7117 37.2758 15.0477 37.2683 12.7873 35.0079C10.5269 32.7474 10.5194 29.0834 12.777 26.8256C13.4442 26.1584 14.2346 25.6888 15.0752 25.4168L9.4898 19.8314L8.95947 19.3011L9.4898 18.7708L25.3384 2.92208ZM25.3384 2.92208L25.8687 3.45241" stroke="black" stroke-width="1.5"/>
</g>
<defs>
<clipPath id="clip0_409_345">
<rect width="57" height="72" fill="white"/>
</clipPath>
</defs>
</svg>
