<svg width="62" height="71" viewBox="0 0 62 71" fill="none" xmlns="http://www.w3.org/2000/svg">
<path d="M32.5708 1H3.87007C2.28555 1 1 2.29408 1 3.88911V53.9669C1 55.562 2.28555 56.8561 3.87007 56.8561H40.2243C41.8089 56.8561 43.0944 55.562 43.0944 53.9669V5C43.0944 2.79086 41.3036 1 39.0944 1H32.5708Z" fill="#BEEEFF" stroke="black" stroke-width="1.5"/>
<path d="M39.6326 7.53381H10.9318C9.34732 7.53381 8.06177 8.82789 8.06177 10.4229V60.5008C8.06177 62.0958 9.34732 63.3899 10.9318 63.3899H47.2861C48.8706 63.3899 50.1562 62.0958 50.1562 60.5008V11.5338C50.1562 9.32468 48.3653 7.53381 46.1562 7.53381H39.6326Z" fill="white" stroke="black" stroke-width="1.5"/>
<rect x="16.3213" y="48.4359" width="6.27128" height="6.27128" rx="1.25" stroke="black" stroke-width="1.5"/>
<path d="M60.4775 57.4002C60.4775 64.4969 54.7245 70.2499 47.6278 70.2499C40.5311 70.2499 34.7781 64.4969 34.7781 57.4002C34.7781 50.3034 40.5311 44.5504 47.6278 44.5504C54.7245 44.5504 60.4775 50.3034 60.4775 57.4002Z" fill="#FFE0AB" stroke="black" stroke-width="1.5"/>
<path d="M41.7991 57.8856L46.6561 61.7712L53.456 52.5428" stroke="black" stroke-width="1.5"/>
<path d="M16.9863 19.515H41.2716" stroke="black" stroke-width="1.5" stroke-linecap="round"/>
<path d="M16.9863 29.3719H41.2716" stroke="black" stroke-width="1.5" stroke-linecap="round"/>
<path d="M16.5427 39.9142H33.0567" stroke="black" stroke-width="1.5" stroke-linecap="round"/>
</svg>
