<svg width="70" height="70" viewBox="0 0 70 70" fill="none" xmlns="http://www.w3.org/2000/svg">
<path d="M57.9688 54.6875H18.5938C17.4334 54.6875 16.3206 55.1484 15.5002 55.9689C14.6797 56.7894 14.2188 57.9022 14.2188 59.0625C14.2188 60.2228 14.6797 61.3356 15.5002 62.1561C16.3206 62.9766 17.4334 63.4375 18.5938 63.4375H57.9688V65.625H18.5938C16.8533 65.625 15.1841 64.9336 13.9534 63.7029C12.7227 62.4722 12.0313 60.803 12.0313 59.0625C12.0313 57.322 12.7227 55.6528 13.9534 54.4221C15.1841 53.1914 16.8533 52.5 18.5938 52.5H57.9688V54.6875Z" fill="#BDEFFC"/>
<path d="M53.1125 61.25H18.5938C18.0136 61.25 17.4572 61.0195 17.047 60.6093C16.6367 60.1991 16.4063 59.6427 16.4063 59.0625C16.4063 58.4823 16.6367 57.9259 17.047 57.5157C17.4572 57.1055 18.0136 56.875 18.5938 56.875H53.1125C52.7118 57.5343 52.4999 58.291 52.4999 59.0625C52.4999 59.834 52.7118 60.5907 53.1125 61.25Z" fill="white"/>
<path d="M55.3 45.9375H20.7813C20.2011 45.9375 19.6447 45.707 19.2345 45.2968C18.8242 44.8866 18.5938 44.3302 18.5938 43.75C18.5938 43.1698 18.8242 42.6134 19.2345 42.2032C19.6447 41.793 20.2011 41.5625 20.7813 41.5625H55.3C54.8993 42.2218 54.6874 42.9785 54.6874 43.75C54.6874 44.5215 54.8993 45.2782 55.3 45.9375Z" fill="#BDEFFC"/>
<path d="M20.7813 39.375C19.6209 39.375 18.5082 39.8359 17.6877 40.6564C16.8672 41.4769 16.4063 42.5897 16.4063 43.75C16.4063 44.9103 16.8672 46.0231 17.6877 46.8436C18.5082 47.6641 19.6209 48.125 20.7813 48.125H60.1563V50.3125H20.7813C19.0408 50.3125 17.3716 49.6211 16.1409 48.3904C14.9102 47.1597 14.2188 45.4905 14.2188 43.75C14.2188 42.0095 14.9102 40.3403 16.1409 39.1096C17.3716 37.8789 19.0408 37.1875 20.7813 37.1875H60.1563V39.375H20.7813Z" fill="white"/>
<path d="M11.7688 33.075C11.1557 32.4688 10.6697 31.7464 10.3391 30.9502C10.0086 30.1539 9.84019 29.2997 9.84377 28.4375C9.84377 26.697 10.5352 25.0278 11.7659 23.7971C12.9966 22.5664 14.6658 21.875 16.4063 21.875H29.5313V22.9688C29.5329 23.1975 29.6053 23.4201 29.7385 23.6062C29.8716 23.7922 30.059 23.9325 30.275 24.0078C30.3851 24.0411 30.4991 24.0595 30.6141 24.0625H16.4063C15.2459 24.0625 14.1331 24.5234 13.3127 25.3439C12.4922 26.1644 12.0313 27.2772 12.0313 28.4375C12.0313 29.5978 12.4922 30.7106 13.3127 31.5311C14.1331 32.3516 15.2459 32.8125 16.4063 32.8125H55.7813V35H16.4063C15.5441 35.0036 14.6899 34.8352 13.8936 34.5046C13.0973 34.1741 12.375 33.6881 11.7688 33.075Z" fill="#BDEFFC"/>
<path d="M37.1875 24.0625H55.7813V21.875H38.2813V22.9688C38.2796 23.1975 38.2072 23.4201 38.0741 23.6062C37.9409 23.7922 37.7535 23.9325 37.5375 24.0078C37.4239 24.042 37.3061 24.0604 37.1875 24.0625Z" fill="#BDEFFC"/>
<path fill-rule="evenodd" clip-rule="evenodd" d="M30.625 24.0625H30.6415C30.636 24.0625 30.6305 24.0625 30.625 24.0625ZM37.1875 24.0625C37.182 24.0625 37.1766 24.0625 37.1711 24.0625H37.1875Z" fill="black"/>
<path fill-rule="evenodd" clip-rule="evenodd" d="M59.0625 41.5625H61.25C61.5401 41.5625 61.8183 41.4473 62.0234 41.2421C62.2285 41.037 62.3438 40.7588 62.3438 40.4688V36.0938C62.3438 35.8037 62.2285 35.5255 62.0234 35.3204C61.8183 35.1152 61.5401 35 61.25 35H57.9688V31.7188C57.9688 31.4287 57.8535 31.1505 57.6484 30.9454C57.4433 30.7402 57.1651 30.625 56.875 30.625H53.5938C53.0136 30.625 52.4572 30.3945 52.047 29.9843C51.6367 29.5741 51.4063 29.0177 51.4063 28.4375C51.4063 27.8573 51.6367 27.3009 52.047 26.8907C52.4572 26.4805 53.0136 26.25 53.5938 26.25H56.875C57.1651 26.25 57.4433 26.1348 57.6484 25.9296C57.8535 25.7245 57.9688 25.4463 57.9688 25.1562V21.6781C58.6061 21.4511 59.1581 21.0332 59.5495 20.4813C59.9409 19.9294 60.1528 19.2703 60.1563 18.5938C60.1563 17.7235 59.8106 16.8889 59.1952 16.2736C58.5799 15.6582 57.7453 15.3125 56.875 15.3125C56.0048 15.3125 55.1702 14.9668 54.5548 14.3514C53.9395 13.7361 53.5938 12.9015 53.5938 12.0312C53.5938 11.161 53.9395 10.3264 54.5548 9.71106C55.1702 9.0957 56.0048 8.75 56.875 8.75C57.7445 8.7474 58.5776 8.40087 59.1923 7.78608C59.8071 7.17128 60.1537 6.33819 60.1563 5.46875C60.1563 4.59851 59.8106 3.76391 59.1952 3.14856C58.5799 2.5332 57.7453 2.1875 56.875 2.1875H24.0625C22.1158 2.18958 20.2133 2.76826 18.5951 3.85051C16.9769 4.93277 15.7156 6.47009 14.9703 8.26849C14.2249 10.0669 14.029 12.0458 14.4072 13.9554C14.7854 15.8651 15.7208 17.6199 17.0953 18.9984C17.3469 19.2391 17.6094 19.4687 17.8719 19.6875H16.4063C14.2017 19.6948 12.0811 20.5339 10.4686 22.0372C8.85599 23.5405 7.87032 25.5971 7.70864 27.7957C7.54695 29.9944 8.22117 32.173 9.59647 33.896C10.9718 35.619 12.9468 36.7594 15.1266 37.0891C14.1131 37.9439 13.3081 39.0188 12.7729 40.2318C12.2376 41.4448 11.9863 42.7639 12.0379 44.0888C12.0896 45.4136 12.443 46.7092 13.0711 47.8768C13.6992 49.0444 14.5855 50.0533 15.6625 50.8266C13.7249 51.5217 12.0944 52.8778 11.0578 54.6563C10.0211 56.4349 9.64478 58.5219 9.99485 60.5505C10.3449 62.5791 11.399 64.4193 12.9718 65.7475C14.5445 67.0758 16.5352 67.8069 18.5938 67.8125H59.0625C59.3526 67.8125 59.6308 67.6973 59.8359 67.4921C60.041 67.287 60.1563 67.0088 60.1563 66.7188V62.3438C60.1563 62.0537 60.041 61.7755 59.8359 61.5704C59.6308 61.3652 59.3526 61.25 59.0625 61.25H56.875C56.2949 61.25 55.7385 61.0195 55.3282 60.6093C54.918 60.1991 54.6875 59.6427 54.6875 59.0625C54.6875 58.4823 54.918 57.9259 55.3282 57.5157C55.7385 57.1055 56.2949 56.875 56.875 56.875H59.0625C59.3526 56.875 59.6308 56.7598 59.8359 56.5546C60.041 56.3495 60.1563 56.0713 60.1563 55.7812V52.5H61.25C61.5401 52.5 61.8183 52.3848 62.0234 52.1796C62.2285 51.9745 62.3438 51.6963 62.3438 51.4062V47.0312C62.3438 46.7412 62.2285 46.463 62.0234 46.2579C61.8183 46.0527 61.5401 45.9375 61.25 45.9375H59.0625C58.4824 45.9375 57.926 45.707 57.5157 45.2968C57.1055 44.8866 56.875 44.3302 56.875 43.75C56.875 43.1698 57.1055 42.6134 57.5157 42.2032C57.926 41.793 58.4824 41.5625 59.0625 41.5625ZM31.115 23.9488C31.2671 23.8728 31.399 23.7618 31.5 23.625L32.8125 21.875H35L36.3125 23.625C36.4135 23.7618 36.5454 23.8728 36.6975 23.9488C36.8447 24.0224 37.0067 24.0612 37.1711 24.0625H37.1875C37.3061 24.0604 37.4239 24.042 37.5375 24.0078C37.7535 23.9325 37.9409 23.7922 38.0741 23.6062C38.2072 23.4201 38.2796 23.1975 38.2813 22.9688V21.875H55.7813V24.0625H37.1875C37.182 24.0625 37.1766 24.0625 37.1711 24.0625H30.6415C30.636 24.0625 30.6305 24.0625 30.625 24.0625H30.6415C30.8059 24.0612 30.9679 24.0224 31.115 23.9488ZM16.4063 30.625H49.8313C49.4306 29.9657 49.2187 29.209 49.2187 28.4375C49.2187 27.666 49.4306 26.9093 49.8313 26.25H16.4063C15.8274 26.2543 15.2735 26.4861 14.8642 26.8954C14.4549 27.3048 14.2231 27.8587 14.2188 28.4375C14.2205 29.0171 14.4515 29.5725 14.8614 29.9824C15.2712 30.3922 15.8266 30.6233 16.4063 30.625ZM29.5313 15.3125V13.125H25.1563V10.9375H51.5156C51.6818 10.1398 52.0299 9.39116 52.5328 8.75H24.0625C23.6316 8.75 23.2049 8.83487 22.8068 8.99977C22.4087 9.16467 22.047 9.40636 21.7423 9.71106C21.4376 10.0157 21.1959 10.3775 21.031 10.7756C20.8661 11.1737 20.7813 11.6004 20.7813 12.0312C20.7813 12.4621 20.8661 12.8888 21.031 13.2869C21.1959 13.685 21.4376 14.0468 21.7423 14.3514C22.047 14.6561 22.4087 14.8978 22.8068 15.0627C23.2049 15.2276 23.6316 15.3125 24.0625 15.3125H29.5313ZM38.2813 15.3125H52.5328C52.0299 14.6713 51.6818 13.9227 51.5156 13.125H38.2813V15.3125ZM36.0938 19.6875V13.125H31.7188V19.6875L33.0313 17.9375C33.1332 17.8017 33.2653 17.6914 33.4171 17.6155C33.569 17.5395 33.7365 17.5 33.9063 17.5C34.0761 17.5 34.2435 17.5395 34.3954 17.6155C34.5473 17.6914 34.6794 17.8017 34.7813 17.9375L36.0938 19.6875ZM57.2995 17.5867C57.1657 17.5283 57.021 17.4987 56.875 17.5H38.2813V19.6875H56.875C57.1651 19.6875 57.4433 19.5723 57.6484 19.3671C57.8535 19.162 57.9688 18.8838 57.9688 18.5938C57.9712 18.4528 57.9442 18.3129 57.8896 18.183C57.835 18.0531 57.754 17.9359 57.6516 17.8391C57.5533 17.7311 57.4333 17.6451 57.2995 17.5867ZM18.6513 6.62002C17.216 8.05535 16.4086 10.0014 16.4063 12.0312C16.4037 13.0374 16.5999 14.0342 16.9838 14.9642C17.3676 15.8943 17.9315 16.7394 18.6429 17.4508C19.3544 18.1623 20.1995 18.7261 21.1295 19.11C22.0596 19.4938 23.0564 19.6901 24.0625 19.6875H29.5313V17.5H24.0625C22.6121 17.5 21.2211 16.9238 20.1955 15.8982C19.1699 14.8727 18.5938 13.4817 18.5938 12.0312C18.5938 10.5808 19.1699 9.18985 20.1955 8.16426C21.2211 7.13867 22.6121 6.5625 24.0625 6.5625H56.875C57.1651 6.5625 57.4433 6.44727 57.6484 6.24215C57.8535 6.03703 57.9688 5.75883 57.9688 5.46875C57.9712 5.32783 57.9442 5.18794 57.8896 5.05801C57.835 4.92808 57.754 4.81094 57.6516 4.71406C57.5533 4.60611 57.4333 4.5201 57.2995 4.46168C57.1657 4.40325 57.021 4.37372 56.875 4.375H24.0625C22.0327 4.37732 20.0866 5.1847 18.6513 6.62002ZM10.3391 30.9502C10.6697 31.7464 11.1557 32.4688 11.7688 33.075C12.375 33.6881 13.0973 34.1741 13.8936 34.5046C14.6899 34.8352 15.5441 35.0036 16.4063 35H55.7813V32.8125H16.4063C15.2459 32.8125 14.1331 32.3516 13.3127 31.5311C12.4922 30.7106 12.0313 29.5978 12.0313 28.4375C12.0313 27.2772 12.4922 26.1644 13.3127 25.3439C14.1331 24.5234 15.2459 24.0625 16.4063 24.0625H30.6141C30.4991 24.0595 30.3851 24.0411 30.275 24.0078C30.059 23.9325 29.8716 23.7922 29.7385 23.6062C29.6053 23.4201 29.5329 23.1975 29.5313 22.9688V21.875H16.4063C14.6658 21.875 12.9966 22.5664 11.7659 23.7971C10.5352 25.0278 9.84377 26.697 9.84377 28.4375C9.84019 29.2997 10.0086 30.1539 10.3391 30.9502ZM18.5938 54.6875H57.9688V52.5H18.5938C16.8533 52.5 15.1841 53.1914 13.9534 54.4221C12.7227 55.6528 12.0313 57.322 12.0313 59.0625C12.0313 60.803 12.7227 62.4722 13.9534 63.7029C15.1841 64.9336 16.8533 65.625 18.5938 65.625H57.9688V63.4375H18.5938C17.4334 63.4375 16.3206 62.9766 15.5002 62.1561C14.6797 61.3356 14.2188 60.2228 14.2188 59.0625C14.2188 57.9022 14.6797 56.7894 15.5002 55.9689C16.3206 55.1484 17.4334 54.6875 18.5938 54.6875ZM18.5938 61.25H53.1125C52.7118 60.5907 52.4999 59.834 52.4999 59.0625C52.4999 58.291 52.7118 57.5343 53.1125 56.875H18.5938C18.0136 56.875 17.4572 57.1055 17.047 57.5157C16.6367 57.9259 16.4063 58.4823 16.4063 59.0625C16.4063 59.6427 16.6367 60.1991 17.047 60.6093C17.4572 61.0195 18.0136 61.25 18.5938 61.25ZM20.7813 45.9375H55.3C54.8993 45.2782 54.6874 44.5215 54.6874 43.75C54.6874 42.9785 54.8993 42.2218 55.3 41.5625H20.7813C20.2011 41.5625 19.6447 41.793 19.2345 42.2032C18.8242 42.6134 18.5938 43.1698 18.5938 43.75C18.5938 44.3302 18.8242 44.8866 19.2345 45.2968C19.6447 45.707 20.2011 45.9375 20.7813 45.9375ZM17.6877 40.6564C18.5082 39.8359 19.6209 39.375 20.7813 39.375H60.1563V37.1875H20.7813C19.0408 37.1875 17.3716 37.8789 16.1409 39.1096C14.9102 40.3403 14.2188 42.0095 14.2188 43.75C14.2188 45.4905 14.9102 47.1597 16.1409 48.3904C17.3716 49.6211 19.0408 50.3125 20.7813 50.3125H60.1563V48.125H20.7813C19.6209 48.125 18.5082 47.6641 17.6877 46.8436C16.8672 46.0231 16.4063 44.9103 16.4063 43.75C16.4063 42.5897 16.8672 41.4769 17.6877 40.6564Z" fill="black"/>
<path d="M31.5 23.625C31.399 23.7618 31.2671 23.8728 31.115 23.9488C30.9679 24.0224 30.8059 24.0612 30.6415 24.0625H37.1711C37.0067 24.0612 36.8447 24.0224 36.6975 23.9488C36.5454 23.8728 36.4135 23.7618 36.3125 23.625L35 21.875H32.8125L31.5 23.625Z" fill="#BDEFFC"/>
<path d="M49.8313 30.625H16.4063C15.8266 30.6233 15.2712 30.3922 14.8614 29.9824C14.4515 29.5725 14.2205 29.0171 14.2188 28.4375C14.2231 27.8587 14.4549 27.3048 14.8642 26.8954C15.2735 26.4861 15.8274 26.2543 16.4063 26.25H49.8313C49.4306 26.9093 49.2187 27.666 49.2187 28.4375C49.2187 29.209 49.4306 29.9657 49.8313 30.625Z" fill="white"/>
<path d="M16.4063 12.0312C16.4086 10.0014 17.216 8.05535 18.6513 6.62002C20.0866 5.1847 22.0327 4.37732 24.0625 4.375H56.875C57.021 4.37372 57.1657 4.40325 57.2995 4.46168C57.4333 4.5201 57.5533 4.60611 57.6516 4.71406C57.754 4.81094 57.835 4.92808 57.8896 5.05801C57.9442 5.18794 57.9712 5.32783 57.9688 5.46875C57.9688 5.75883 57.8535 6.03703 57.6484 6.24215C57.4433 6.44727 57.1651 6.5625 56.875 6.5625H24.0625C22.6121 6.5625 21.2211 7.13867 20.1955 8.16426C19.1699 9.18985 18.5938 10.5808 18.5938 12.0312C18.5938 13.4817 19.1699 14.8727 20.1955 15.8982C21.2211 16.9238 22.6121 17.5 24.0625 17.5H29.5313V19.6875H24.0625C23.0564 19.6901 22.0596 19.4938 21.1295 19.11C20.1995 18.7261 19.3544 18.1623 18.6429 17.4508C17.9315 16.7394 17.3676 15.8943 16.9838 14.9642C16.5999 14.0342 16.4037 13.0374 16.4063 12.0312Z" fill="white"/>
<path d="M56.875 17.5C57.021 17.4987 57.1657 17.5283 57.2995 17.5867C57.4333 17.6451 57.5533 17.7311 57.6516 17.8391C57.754 17.9359 57.835 18.0531 57.8896 18.183C57.9442 18.3129 57.9712 18.4528 57.9688 18.5938C57.9688 18.8838 57.8535 19.162 57.6484 19.3671C57.4433 19.5723 57.1651 19.6875 56.875 19.6875H38.2813V17.5H56.875Z" fill="white"/>
<path d="M52.5328 15.3125H38.2813V13.125H51.5156C51.6818 13.9227 52.0299 14.6713 52.5328 15.3125Z" fill="#BDEFFC"/>
<path d="M29.5313 13.125V15.3125H24.0625C23.6316 15.3125 23.2049 15.2276 22.8068 15.0627C22.4087 14.8978 22.047 14.6561 21.7423 14.3514C21.4376 14.0468 21.1959 13.685 21.031 13.2869C20.8661 12.8888 20.7813 12.4621 20.7813 12.0312C20.7813 11.6004 20.8661 11.1737 21.031 10.7756C21.1959 10.3775 21.4376 10.0157 21.7423 9.71106C22.047 9.40636 22.4087 9.16467 22.8068 8.99977C23.2049 8.83487 23.6316 8.75 24.0625 8.75H52.5328C52.0299 9.39116 51.6818 10.1398 51.5156 10.9375H25.1563V13.125H29.5313Z" fill="#BDEFFC"/>
<path d="M36.0938 13.125V19.6875L34.7813 17.9375C34.6794 17.8017 34.5473 17.6914 34.3954 17.6155C34.2435 17.5395 34.0761 17.5 33.9063 17.5C33.7365 17.5 33.569 17.5395 33.4171 17.6155C33.2653 17.6914 33.1332 17.8017 33.0313 17.9375L31.7188 19.6875V13.125H36.0938Z" fill="#F59839"/>
</svg>
