<svg width="59" height="71" viewBox="0 0 59 71" fill="none" xmlns="http://www.w3.org/2000/svg">
<path d="M34.9781 12.3014H5.75407C4.14066 12.3014 2.83167 13.6191 2.83167 15.2432V66.2341C2.83167 67.8582 4.14066 69.1758 5.75407 69.1758H42.7712C44.3846 69.1758 45.6936 67.8582 45.6936 66.2341V23.0879L34.9781 12.3014Z" fill="#BDEFFC" stroke="black" stroke-width="2"/>
<path d="M44.5103 22.1925H36.1178C34.3803 22.1925 32.9706 20.8835 32.9706 19.2701V11.4771L44.5103 22.1925Z" fill="#BDEFFC"/>
<path d="M44.1806 22.1925H36.1178C34.3803 22.1925 32.9706 20.8835 32.9706 19.2701V11.4771L44.1806 22.1925Z" fill="#FFE0AB"/>
<path d="M32.9706 12.3014V19.6047C32.9706 21.2615 34.3137 22.6047 35.9706 22.6047H43.6861" stroke="black" stroke-width="2" stroke-linecap="round"/>
<path d="M33.3827 12.3014L43.686 22.6047" stroke="black" stroke-width="2" stroke-linecap="round"/>
<path d="M46.0183 1.64856H16.7942C15.1808 1.64856 13.8718 2.96623 13.8718 4.59034V55.5812C13.8718 57.2053 15.1808 58.523 16.7942 58.523H53.8113C55.4247 58.523 56.7337 57.2053 56.7337 55.5812V12.4351L46.0183 1.64856Z" fill="white" stroke="black" stroke-width="2"/>
<path d="M57.5579 11.5398H49.1654C47.4279 11.5398 46.0182 10.2308 46.0182 8.61741V0.824341L57.5579 11.5398Z" fill="#BDEFFC"/>
<path d="M57.2282 11.5398H49.1654C47.4279 11.5398 46.0182 10.2308 46.0182 8.61741V0.824341L57.2282 11.5398Z" fill="#FFE0AB"/>
<path d="M46.0182 1.64856V8.95184C46.0182 10.6087 47.3613 11.9518 49.0182 11.9518H56.7337" stroke="black" stroke-width="2" stroke-linecap="round"/>
<path d="M46.4303 1.64856L56.7336 11.9519" stroke="black" stroke-width="2" stroke-linecap="round"/>
<path fill-rule="evenodd" clip-rule="evenodd" d="M36.9224 27.5962C35.2038 25.8776 32.298 25.9427 30.4362 27.8057L25.8331 32.4088C23.9701 34.2706 23.905 37.1764 25.6236 38.895C27.3422 40.6136 30.248 40.5485 32.1099 38.6855L34.412 36.3845C34.4944 36.3021 34.5599 36.2042 34.6045 36.0964C34.6491 35.9887 34.6721 35.8732 34.6721 35.7566C34.6721 35.64 34.6491 35.5245 34.6045 35.4168C34.5599 35.3091 34.4944 35.2112 34.412 35.1287C34.3295 35.0462 34.2316 34.9808 34.1239 34.9362C34.0162 34.8916 33.9007 34.8686 33.7841 34.8686C33.6675 34.8686 33.552 34.8916 33.4443 34.9362C33.3365 34.9808 33.2386 35.0462 33.1562 35.1287L30.854 37.4308C29.7118 38.573 27.9341 38.6938 26.8795 37.6392C25.8248 36.5846 25.9456 34.8068 27.0878 33.6646L31.6909 29.0615C32.8342 27.9181 34.612 27.7974 35.6666 28.852C35.8332 29.0185 36.059 29.1121 36.2945 29.1121C36.53 29.1121 36.7559 29.0185 36.9224 28.852C37.089 28.6855 37.1825 28.4596 37.1825 28.2241C37.1825 27.9886 37.089 27.7627 36.9224 27.5962Z" fill="black"/>
<path fill-rule="evenodd" clip-rule="evenodd" d="M32.3194 32.1992C33.1518 33.0315 34.2807 33.4991 35.4578 33.4991C36.6349 33.4991 37.7638 33.0315 38.5961 32.1992L43.6182 27.1783C44.4497 26.3453 44.9167 25.2164 44.9167 24.0394C44.9167 22.8624 44.4497 21.7335 43.6182 20.9004C43.206 20.4881 42.7167 20.1611 42.1781 19.938C41.6395 19.7148 41.0622 19.6 40.4793 19.6C39.8963 19.6 39.319 19.7148 38.7804 19.938C38.2418 20.1611 37.7525 20.4881 37.3403 20.9004L34.8299 23.412C34.6681 23.5794 34.5785 23.8036 34.5804 24.0364C34.5823 24.2691 34.6756 24.4918 34.8401 24.6565C35.0046 24.8211 35.2272 24.9146 35.46 24.9167C35.6927 24.9189 35.917 24.8295 36.0845 24.6679L38.5961 22.1562C39.0956 21.6568 39.773 21.3762 40.4793 21.3762C41.1856 21.3762 41.863 21.6568 42.3624 22.1562C42.8618 22.6557 43.1424 23.3331 43.1424 24.0394C43.1424 24.7457 42.8618 25.4231 42.3624 25.9225L37.3403 30.9446C36.8406 31.4434 36.1633 31.7236 35.4572 31.7236C34.7511 31.7236 34.0738 31.4434 33.574 30.9446C33.4917 30.8622 33.3939 30.7969 33.2862 30.7523C33.1786 30.7077 33.0632 30.6847 32.9467 30.6847C32.8302 30.6847 32.7149 30.7077 32.6072 30.7523C32.4996 30.7969 32.4018 30.8622 32.3194 30.9446C32.237 31.027 32.1717 31.1248 32.1271 31.2324C32.0825 31.34 32.0596 31.4554 32.0596 31.5719C32.0596 31.6884 32.0825 31.8038 32.1271 31.9114C32.1717 32.019 32.237 32.1168 32.3194 32.1992Z" fill="black"/>
</svg>
