<svg width="95" height="70" viewBox="0 0 95 67" fill="none" xmlns="http://www.w3.org/2000/svg">
<circle cx="27.9286" cy="53.0692" r="13.1786" fill="white" stroke="black" stroke-width="1.5"/>
<mask id="mask0_1478_62758" style="mask-type:alpha" maskUnits="userSpaceOnUse" x="14" y="39" width="28" height="28">
<circle cx="27.9286" cy="53.0692" r="13.1786" fill="white" stroke="black" stroke-width="1.5"/>
</mask>
<g mask="url(#mask0_1478_62758)">
<circle cx="28.6249" cy="50.2801" r="3.42857" fill="white" stroke="black" stroke-width="1.5"/>
<rect x="21.7139" y="56.6016" width="13.125" height="14.5179" rx="6.5625" fill="#FFE0AB" stroke="black" stroke-width="1.5"/>
<circle cx="27.9286" cy="53.0692" r="13.1786" stroke="black" stroke-width="1.5"/>
</g>
<circle cx="46.9647" cy="13.9286" r="13.1786" fill="white" stroke="black" stroke-width="1.5"/>
<mask id="mask1_1478_62758" style="mask-type:alpha" maskUnits="userSpaceOnUse" x="33" y="0" width="28" height="28">
<circle cx="46.9647" cy="13.9286" r="13.1786" fill="white" stroke="black" stroke-width="1.5"/>
</mask>
<g mask="url(#mask1_1478_62758)">
<circle cx="47.661" cy="11.1395" r="3.42857" fill="white" stroke="black" stroke-width="1.5"/>
<rect x="40.75" y="17.4609" width="13.125" height="14.5179" rx="6.5625" fill="#FFB9B9" stroke="black" stroke-width="1.5"/>
<circle cx="46.9647" cy="13.9286" r="13.1786" stroke="black" stroke-width="1.5"/>
</g>
<circle cx="66.9286" cy="52.1395" r="13.1786" fill="white" stroke="black" stroke-width="1.5"/>
<mask id="mask2_1478_62758" style="mask-type:alpha" maskUnits="userSpaceOnUse" x="53" y="38" width="28" height="29">
<circle cx="66.9286" cy="52.1395" r="13.1786" fill="white" stroke="black" stroke-width="1.5"/>
</mask>
<g mask="url(#mask2_1478_62758)">
<circle cx="67.6249" cy="49.3504" r="3.42857" stroke="black" stroke-width="1.5"/>
<rect x="60.7139" y="55.6719" width="13.125" height="14.5179" rx="6.5625" fill="#BEEEFF" stroke="black" stroke-width="1.5"/>
<circle cx="66.9286" cy="52.1395" r="13.1786" stroke="black" stroke-width="1.5"/>
</g>
<path d="M9.35714 52.6083H4C2.34314 52.6083 1 51.2651 1 49.6083V18.9297C1 17.2728 2.34315 15.9297 4 15.9297H27.4643" stroke="black" stroke-width="1.5"/>
<path d="M67.3926 15.9297H90.3926C92.0494 15.9297 93.3926 17.2728 93.3926 18.9297V48.2154C93.3926 49.8723 92.0494 51.2154 90.3926 51.2154H85.4997" stroke="black" stroke-width="1.5"/>
</svg>
