<svg width="100" height="100" viewBox="0 0 100 100" fill="none" xmlns="http://www.w3.org/2000/svg">
<circle cx="50" cy="50" r="50" fill="#F7F1E9"/>
<path d="M67.125 57.3335V41.6669C67.1243 40.98 66.943 40.3055 66.5993 39.7108C66.2555 39.1162 65.7616 38.6224 65.1667 38.279L51.4583 30.4456C50.8629 30.1019 50.1875 29.9209 49.5 29.9209C48.8125 29.9209 48.1371 30.1019 47.5417 30.4456L33.8333 38.279C33.2385 38.6224 32.7445 39.1162 32.4007 39.7108C32.057 40.3055 31.8757 40.98 31.875 41.6669V57.3335C31.8757 58.0204 32.057 58.695 32.4007 59.2896C32.7445 59.8843 33.2385 60.3781 33.8333 60.7215L47.5417 68.5548C48.1371 68.8986 48.8125 69.0795 49.5 69.0795C50.1875 69.0795 50.8629 68.8986 51.4583 68.5548L65.1667 60.7215C65.7616 60.3781 66.2555 59.8843 66.5993 59.2896C66.943 58.695 67.1243 58.0204 67.125 57.3335Z" stroke="black" stroke-width="2" stroke-linecap="round" stroke-linejoin="round"/>
<path d="M32.4043 39.6299L49.5005 49.5194L66.5967 39.6299" stroke="black" stroke-width="2" stroke-linecap="round" stroke-linejoin="round"/>
<path d="M49.5 69.24V49.5" stroke="black" stroke-width="2" stroke-linecap="round" stroke-linejoin="round"/>
</svg>
