<svg width="100" height="73" viewBox="0 0 100 73" fill="none" xmlns="http://www.w3.org/2000/svg">
<path d="M18.6047 3.67471V0.397758C24.172 -0.69456 37.5476 -0.194208 46.5116 10.5458C41.7548 7.93828 29.5138 2.91362 18.6047 3.67471Z" fill="#2C75FF"/>
<path d="M48.8372 15.4303C41.8252 10.004 22.241 1.13856 0 9.08781V13.8447C7.18816 10.2506 27.019 5.53603 48.8372 15.4303Z" fill="#2C75FF"/>
<path d="M2.21988 64.9049V17.1247C7.9986 12.544 25.7294 6.13107 50.4228 17.1247V72.093C43.9394 67.7237 25.222 60.1691 2.21988 64.9049Z" fill="#2C75FF"/>
<ellipse cx="24.7357" cy="37.7899" rx="21.3147" ry="21.088" fill="white"/>
<circle cx="24.6224" cy="37.9032" r="14.8523" fill="#2C75FF"/>
<path d="M22.4682 43.9122H29.7243L44.8033 60.4651H37.8874L22.4682 43.9122Z" fill="#FEFEFE"/>
<path d="M98.5201 64.8439V17.0638C92.7414 12.4831 75.0106 6.07016 50.3171 17.0638V72.0321C56.8006 67.6628 75.518 60.1082 98.5201 64.8439Z" fill="#F59839"/>
<path fill-rule="evenodd" clip-rule="evenodd" d="M53.9112 60.4651H61.6279L67.019 49.3657H84.1438L89.5349 60.4651H97.0402L75.4757 16.9133L53.9112 60.4651ZM75.2643 29.3869L69.3446 42.9175H82.241L75.2643 29.3869Z" fill="white"/>
<path d="M69.3446 42.9175L75.2643 29.3869L82.241 42.9175H69.3446Z" fill="#F59839"/>
<path d="M51.1628 15.4303C58.1748 10.004 77.759 1.13856 100 9.08781V13.8447C92.8118 10.2506 72.981 5.53603 51.1628 15.4303Z" fill="#F59839"/>
<path d="M81.8182 3.67471V0.397758C76.2509 -0.69456 62.8753 -0.194208 53.9112 10.5458C58.6681 7.93828 70.9091 2.91362 81.8182 3.67471Z" fill="#F59839"/>
</svg>
